<?xml version="1.0" encoding="UTF-8" standalone="no"?>
<svg
   xmlns:dc="http://purl.org/dc/elements/1.1/"
   xmlns:cc="http://creativecommons.org/ns#"
   xmlns:rdf="http://www.w3.org/1999/02/22-rdf-syntax-ns#"
   xmlns:svg="http://www.w3.org/2000/svg"
   xmlns="http://www.w3.org/2000/svg"
   id="svg16"
   xml:space="preserve"
   viewBox="0 0 1024 768"
   y="0px"
   x="0px"
   version="1.1"><metadata
     id="metadata22"><rdf:RDF><cc:Work
         rdf:about=""><dc:format>image/svg+xml</dc:format><dc:type
           rdf:resource="http://purl.org/dc/dcmitype/StillImage" /></cc:Work></rdf:RDF></metadata><defs
     id="defs20" /><rect
     id="rect2"
     height="768"
     width="1024"
     fill="#fcfcfc" /><g
     transform="matrix(1.024,0,0,1.024,-12.313,-9.1936)"
     id="logo-group"><path
       style="fill:#cca8ed;stroke-width:0.44248"
       d="m 459.42,339.69 c -0.31786,-0.005 -0.61138,-0.005 -0.65195,9.9e-4 -0.0406,0.006 -0.21207,0.0221 -0.38133,0.0371 -0.17036,0.0148 -0.46461,0.0534 -0.65532,0.0856 -0.19027,0.0325 -0.51726,0.10185 -0.72656,0.1545 -0.20929,0.0526 -0.50753,0.13704 -0.66284,0.18747 -0.15487,0.0502 -0.4531,0.15917 -0.66284,0.24183 -0.20974,0.0829 -0.58054,0.25119 -0.82435,0.37447 -0.24336,0.12323 -0.97965,0.53408 -1.6359,0.9132 -0.65615,0.37887 -1.6139,0.93094 -2.1281,1.2264 -0.51417,0.29547 -1.0621,0.61138 -1.2178,0.70213 -0.15548,0.0905 -0.62611,0.3619 -1.0456,0.60275 -0.41947,0.24061 -1.1502,0.66107 -1.6237,0.93391 -0.47359,0.27283 -1.4257,0.82098 -2.1158,1.2181 -0.6901,0.39708 -1.5647,0.90094 -1.9436,1.1194 -0.37887,0.21846 -0.92678,0.53412 -1.2178,0.70142 -0.2908,0.1673 -0.83895,0.48293 -1.2178,0.70143 -0.37887,0.21846 -1.2535,0.72208 -1.9436,1.1191 -0.6901,0.39708 -1.5647,0.90068 -1.9436,1.1191 -0.37887,0.21847 -0.92678,0.53412 -1.2178,0.70143 -0.2908,0.16729 -0.83895,0.48292 -1.2178,0.70142 -0.37887,0.21847 -1.1096,0.63917 -1.6237,0.93488 -0.51417,0.29572 -1.4663,0.84359 -2.1158,1.2175 -0.64948,0.37395 -1.7455,1.005 -2.4356,1.4023 -0.69009,0.39708 -1.5647,0.90094 -1.9436,1.1194 -0.37887,0.21847 -0.9932,0.57248 -1.3654,0.78678 -0.37199,0.21428 -0.74298,0.43398 -0.82417,0.4881 -0.0812,0.0544 -0.2694,0.18895 -0.41824,0.29916 -0.14884,0.11022 -0.37567,0.2881 -0.50434,0.39536 -0.12842,0.10727 -0.40938,0.36682 -0.62417,0.57669 -0.21453,0.20985 -0.48637,0.49279 -0.60399,0.62859 -0.1176,0.1358 -0.29694,0.35722 -0.3988,0.49204 -0.10161,0.13482 -0.24454,0.33361 -0.31736,0.44185 -0.0728,0.10825 -0.20666,0.3218 -0.29769,0.47457 -0.0908,0.15302 -0.23716,0.42414 -0.32499,0.60275 -0.0878,0.17885 -0.21453,0.46323 -0.28195,0.63253 -0.0672,0.16901 -0.16139,0.4293 -0.20911,0.57815 -0.048,0.14884 -0.12055,0.40347 -0.1609,0.56584 -0.0406,0.16238 -0.0964,0.41135 -0.12424,0.55355 -0.0278,0.14195 -0.0672,0.39117 -0.0871,0.55355 -0.0202,0.16237 -0.0482,0.44407 -0.0622,0.62611 -0.0177,0.2239 -0.0257,6.0218 -0.0257,18.059 0,12.0372 0.008,17.835 0.0256,18.059 0.014,0.18206 0.0421,0.46377 0.0622,0.62612 0.0199,0.16237 0.0591,0.41134 0.0869,0.55354 0.0275,0.14196 0.0895,0.41332 0.13777,0.60275 0.0482,0.18944 0.13506,0.48271 0.19313,0.65196 0.0578,0.16901 0.16385,0.4458 0.23519,0.61505 0.0716,0.16901 0.19534,0.43472 0.27505,0.59045 0.08,0.15548 0.20149,0.3769 0.27038,0.49204 0.0686,0.11489 0.1914,0.30876 0.27259,0.43054 0.0809,0.12178 0.23052,0.33163 0.33238,0.46646 0.10185,0.13482 0.2812,0.35624 0.3988,0.49204 0.1176,0.13581 0.38945,0.41873 0.60399,0.6286 0.21477,0.20985 0.49571,0.46938 0.62416,0.57668 0.12867,0.10727 0.3555,0.28514 0.50435,0.39536 0.14884,0.11022 0.33705,0.24479 0.41823,0.29916 0.0812,0.0541 0.45218,0.27382 0.82417,0.4881 0.37223,0.21429 0.98656,0.56833 1.3654,0.78678 0.37887,0.21847 1.2535,0.72231 1.9436,1.1194 0.6901,0.39732 1.7861,1.0284 2.4356,1.4023 0.64948,0.37395 1.6016,0.92182 2.1158,1.2175 0.51417,0.29572 1.2449,0.71643 1.6237,0.93488 0.37887,0.21847 0.927,0.53412 1.2178,0.70143 0.29104,0.16729 0.83895,0.48292 1.2178,0.70142 0.37887,0.21846 1.2535,0.72209 1.9436,1.1191 0.69009,0.39707 1.5647,0.90067 1.9436,1.1191 0.37887,0.21846 0.927,0.53412 1.2178,0.70142 0.29104,0.16729 0.83895,0.48293 1.2178,0.70143 0.37887,0.21846 1.2535,0.7223 1.9436,1.1194 0.69009,0.39707 1.6422,0.94523 2.1158,1.2181 0.47359,0.27284 1.2043,0.69328 1.6237,0.9339 0.41947,0.24085 0.8901,0.51222 1.0456,0.60275 0.15573,0.0908 0.70363,0.40668 1.2178,0.70213 0.51417,0.29548 1.4719,0.84754 2.1281,1.2264 0.65638,0.37912 1.3925,0.78996 1.636,0.91324 0.24356,0.12325 0.61456,0.29153 0.82417,0.37444 0.20985,0.0827 0.50801,0.19165 0.66301,0.24184 0.155,0.0504 0.45368,0.13482 0.66377,0.18771 0.2101,0.0529 0.54271,0.12277 0.7393,0.15524 0.19633,0.0325 0.48465,0.0736 0.64014,0.091 0.16435,0.0187 0.55107,0.0315 0.92258,0.031 0.4554,-8.9e-4 0.74249,-0.0138 0.99638,-0.0448 0.19633,-0.0241 0.44532,-0.06 0.55355,-0.0802 0.10825,-0.0204 0.35058,-0.0753 0.53855,-0.12251 0.18796,-0.047 0.4812,-0.1331 0.65195,-0.19141 0.17074,-0.0583 0.42094,-0.15327 0.55625,-0.21109 0.13531,-0.0576 0.34024,-0.15228 0.45514,-0.20985 0.11513,-0.0578 0.30334,-0.16016 0.41823,-0.22732 0.11514,-0.0672 0.30876,-0.18304 0.43054,-0.25759 0.12178,-0.0745 0.56461,-0.33262 0.98408,-0.57372 0.41946,-0.24086 0.96736,-0.55602 1.2178,-0.70019 0.25045,-0.14417 0.79293,-0.45659 1.2055,-0.69452 0.41283,-0.23765 1.2872,-0.74125 1.9436,-1.1191 0.65638,-0.37789 1.6139,-0.92872 2.1281,-1.2242 0.51417,-0.29547 1.0623,-0.61112 1.2178,-0.70143 0.15548,-0.0903 0.48222,-0.27874 0.72576,-0.41848 0.24356,-0.13974 0.57027,-0.32819 0.72576,-0.41848 0.15548,-0.0903 0.70364,-0.40594 1.2178,-0.70143 0.51417,-0.29547 1.4663,-0.84337 2.1158,-1.2173 0.64948,-0.37396 1.7455,-1.005 2.4356,-1.4023 0.6901,-0.39708 1.5647,-0.90094 1.9436,-1.1194 0.37887,-0.21871 1.1096,-0.63916 1.6237,-0.93461 0.51417,-0.29547 1.0734,-0.61753 1.2424,-0.71567 0.16926,-0.0982 0.96638,-0.55749 1.7714,-1.0207 0.80523,-0.46328 2.0784,-1.1959 2.8292,-1.6284 0.75112,-0.43226 1.9246,-1.1078 2.6078,-1.501 0.68346,-0.39339 1.5192,-0.87483 1.8575,-1.0702 0.33828,-0.19559 0.75797,-0.44925 0.93266,-0.5639 0.17468,-0.11465 0.42882,-0.29276 0.56488,-0.39585 0.13605,-0.10308 0.35845,-0.28342 0.49425,-0.40077 0.1358,-0.11735 0.37986,-0.35058 0.54222,-0.51788 0.16238,-0.16754 0.3865,-0.41823 0.49793,-0.55722 0.11145,-0.139 0.309,-0.41331 0.4389,-0.60939 0.12965,-0.19608 0.31737,-0.51416 0.41652,-0.70682 0.0994,-0.19263 0.23741,-0.48859 0.30678,-0.65762 0.0694,-0.16926 0.17984,-0.47925 0.24553,-0.68885 0.0654,-0.20986 0.1486,-0.5132 0.18476,-0.67435 0.0359,-0.16114 0.0859,-0.4047 0.11096,-0.54124 0.0251,-0.13655 0.063,-0.40323 0.0844,-0.59267 0.0211,-0.18943 0.0497,-0.50509 0.0632,-0.70116 0.016,-0.23298 0.0246,-6.5275 0.0246,-18.156 0,-11.6285 -0.009,-17.923 -0.0246,-18.156 -0.0135,-0.19633 -0.0421,-0.51173 -0.0632,-0.70116 -0.0214,-0.18944 -0.0593,-0.45611 -0.0844,-0.59266 -0.0251,-0.13654 -0.075,-0.3801 -0.11096,-0.54125 -0.0362,-0.16114 -0.11932,-0.46474 -0.18476,-0.67434 -0.0657,-0.20986 -0.17615,-0.51983 -0.24553,-0.68886 -0.0694,-0.16926 -0.20813,-0.46669 -0.30851,-0.66107 -0.10037,-0.1946 -0.29769,-0.52673 -0.43865,-0.73806 -0.14097,-0.21158 -0.37199,-0.52306 -0.51346,-0.69205 -0.14146,-0.16926 -0.40642,-0.45217 -0.58872,-0.62881 -0.18206,-0.17689 -0.47435,-0.4357 -0.64926,-0.57518 -0.17467,-0.13974 -0.48934,-0.3678 -0.69921,-0.50682 -0.20961,-0.139 -0.65811,-0.41258 -0.99638,-0.60766 -0.33828,-0.19534 -1.174,-0.67656 -1.8575,-1.0699 -0.68319,-0.39314 -1.901,-1.094 -2.7062,-1.5578 -0.80496,-0.4635 -2.0781,-1.1962 -2.8292,-1.6284 -0.75085,-0.43202 -1.5037,-0.86576 -1.6729,-0.96391 -0.16901,-0.0982 -0.72823,-0.4202 -1.2424,-0.71567 -0.51417,-0.29547 -1.2449,-0.71594 -1.6237,-0.93461 -0.37887,-0.21847 -1.2535,-0.72231 -1.9436,-1.1194 -0.6901,-0.39732 -1.7861,-1.0284 -2.4356,-1.4023 -0.64948,-0.37396 -1.6016,-0.92183 -2.1158,-1.2173 -0.51417,-0.29547 -1.0623,-0.61111 -1.2178,-0.70142 -0.15549,-0.0903 -0.48222,-0.27875 -0.72577,-0.41849 -0.24356,-0.13974 -0.57027,-0.32819 -0.72576,-0.41848 -0.15548,-0.0903 -0.70363,-0.40593 -1.2178,-0.70142 -0.51416,-0.29548 -1.4717,-0.8463 -2.1281,-1.2242 -0.65638,-0.37789 -1.5307,-0.88147 -1.9436,-1.1191 -0.41258,-0.2379 -0.95506,-0.55036 -1.2055,-0.69452 -0.25045,-0.14417 -0.79833,-0.45935 -1.2178,-0.70041 -0.41947,-0.24135 -0.84559,-0.48859 -0.94718,-0.5501 -0.10136,-0.0612 -0.28293,-0.17098 -0.40323,-0.2438 -0.12055,-0.0728 -0.32524,-0.18575 -0.45514,-0.25094 -0.13015,-0.0652 -0.34713,-0.16582 -0.48244,-0.22339 -0.13531,-0.0578 -0.38551,-0.15278 -0.55624,-0.21109 -0.17074,-0.0583 -0.46399,-0.14441 -0.65196,-0.19165 -0.18796,-0.047 -0.4357,-0.10283 -0.55084,-0.12375 -0.1149,-0.0211 -0.35304,-0.0556 -0.52895,-0.0768 -0.1759,-0.0212 -0.57987,-0.0426 -0.89797,-0.0475 z"
       id="icon_container" /><path
       stroke-miterlimit="2"
       d="M 320.32,413.82 301.2,384 l 6.1322,-9.6192 c 2.4048,-3.7274 1.3227,-8.6573 -2.4048,-10.942 -3.7274,-2.4048 -8.6573,-1.3226 -10.942,2.4048 l -2.1643,3.3667 -15.15,-23.567 c -2.4048,-3.7274 -7.3346,-4.8096 -10.942,-2.4048 -3.7275,2.2846 -4.8096,7.2144 -2.525,10.942 l 19.12,29.82 -19.11,29.82 c -2.2846,3.7274 -1.2024,8.6573 2.525,11.062 3.7274,2.2846 8.6573,1.2024 10.942,-2.525 l 15.15,-23.567 15.03,23.567 c 2.4048,3.7274 7.3346,4.8096 11.062,2.525 3.6072,-2.4048 4.6894,-7.3346 2.4048,-11.062 z m -6.73,-71.9 c -4.4489,0 -7.9358,3.6072 -7.9358,7.9358 0,4.4489 3.4869,8.0561 7.9358,8.0561 4.3286,0 7.9358,-3.6072 7.9358,-8.0561 0,-4.3286 -3.6072,-7.9358 -7.9358,-7.9358 z"
       style="font-variant-ligatures:normal;fill:#650097;stroke-width:0;stroke-miterlimit:2"
       id="path1142977" /><path
       stroke-miterlimit="2"
       class="c1"
       d="m 382.46,418.15 c 0,4.3299 -3.4868,7.9374 -7.9374,7.9374 -4.449,0 -7.9358,-3.6075 -7.9358,-7.9374 v -60.246 h -17.437 c -4.3283,0 -7.9358,-3.6075 -7.9358,-8.0564 0,-4.3283 3.6075,-7.9358 7.9358,-7.9358 h 25.373 c 4.811,0 7.9374,3.6075 7.9374,7.9358 z"
       style="font-variant-ligatures:normal;fill:#650097;stroke-width:0;stroke-miterlimit:2"
       id="path15" /><path
       stroke-miterlimit="2"
       class="c3"
       d="m 407.83,349.85 c 0,4.449 -3.6075,8.0564 -7.9374,8.0564 -4.449,0 -8.0564,-3.6075 -8.0564,-8.0564 0,-4.3283 3.6075,-7.9358 8.0564,-7.9358 4.3299,0 7.9374,3.6075 7.9374,7.9358 z"
       style="font-variant-ligatures:normal;fill:#650097;stroke-width:0;stroke-miterlimit:2"
       id="path17" /><path
       stroke-miterlimit="2"
       class="c1"
       d="m 577.53,423.93 c -3.1264,3.0057 -8.1771,2.885 -11.303,-0.24136 l -28.018,-29.701 v 24.169 c 0,4.3299 -3.6075,7.9374 -8.0564,7.9374 -4.3299,0 -7.9374,-3.6075 -7.9374,-7.9374 v -68.302 c 0,-4.3283 3.6075,-7.9358 7.9374,-7.9358 4.449,0 8.0564,3.6075 8.0564,7.9358 v 21.164 l 9.1393,-9.7395 c 3.1264,-3.1264 8.1771,-3.247 11.303,-0.12069 3.1264,3.1264 3.1264,8.1771 0,11.303 l -10.702,9.8602 29.822,30.303 c 3.0057,3.128 2.885,8.1771 -0.24138,11.305 z"
       style="font-variant-ligatures:normal;fill:#650097;stroke-width:0;stroke-miterlimit:2"
       id="path20" /><path
       stroke-miterlimit="2"
       class="c3"
       d="m 569.72,341.92 c 4.449,0 8.0564,3.6075 8.0564,7.9358 0,4.449 -3.6075,8.0564 -8.0564,8.0564 -4.3299,0 -7.9374,-3.6075 -7.9374,-8.0564 0,-4.3283 3.6075,-7.9358 7.9374,-7.9358 z"
       style="font-variant-ligatures:normal;fill:#650097;stroke-width:0;stroke-miterlimit:2"
       id="path22" /><path
       stroke-miterlimit="2"
       class="c1"
       d="m 613.08,426.09 c -4.3283,0 -7.9358,-3.6075 -7.9358,-7.9374 v -68.302 c 0,-4.3283 3.6075,-7.9358 7.9358,-7.9358 h 16.596 c 4.3283,0 7.9358,3.6075 7.9358,7.9358 0,4.449 -3.6075,8.0564 -7.9358,8.0564 h -8.5375 v 18.399 h 27.897 c 4.449,0 7.9358,3.247 7.9358,7.696 0,4.3283 -3.4868,7.5753 -7.9358,7.5753 h -27.898 v 18.518 h 32.828 c 4.449,0 7.9358,3.6075 7.9358,8.0564 0,4.3299 -3.4868,7.9374 -7.9358,7.9374 z"
       style="font-variant-ligatures:normal;fill:#650097;stroke-width:0;stroke-miterlimit:2"
       id="path25" /><path
       stroke-miterlimit="2"
       class="c3"
       d="m 653.61,357.91 c -4.449,0 -8.0564,-3.6075 -8.0564,-8.0564 0,-4.3283 3.6075,-7.9358 8.0564,-7.9358 4.3283,0 7.9358,3.6075 7.9358,7.9358 0,4.449 -3.6074,8.0564 -7.9358,8.0564 z"
       style="font-variant-ligatures:normal;fill:#650097;stroke-width:0;stroke-miterlimit:2"
       id="path27" /><path
       stroke-miterlimit="2"
       class="c1"
       d="m 746,397.59 v -23.811 c 0,-4.449 3.6075,-8.0564 7.9358,-8.0564 4.4506,0 8.0581,3.6075 8.0581,7.9374 v 43.53 c 0,2.7659 -0.60178,5.1715 -3.0073,7.2149 -1.9244,1.4433 -4.9301,2.5262 -8.2962,0.84315 -1.8037,-0.96221 -2.7659,-2.0451 -4.0886,-3.6075 l -41.727,-51.108 v 47.619 c 0,4.3299 -3.6075,7.9374 -8.0564,7.9374 -4.3299,0 -7.9374,-3.6075 -7.9374,-7.9374 v -66.619 c 0,-3.0057 0.36042,-6.6131 4.2092,-8.6566 3.0057,-1.6847 6.9736,-1.4433 10.702,2.885 z"
       style="font-variant-ligatures:normal;fill:#650097;stroke-width:0;stroke-miterlimit:2"
       id="path30" /><path
       stroke-miterlimit="2"
       class="c3"
       d="m 761.99,349.85 c 0,4.449 -3.6075,7.9374 -7.9374,7.9374 -4.449,0 -8.0564,-3.4884 -8.0564,-7.9374 0,-4.449 3.6075,-7.9358 8.0564,-7.9358 4.3299,0 7.9374,3.4868 7.9374,7.9358 z"
       style="font-variant-ligatures:normal;fill:#650097;stroke-width:0;stroke-miterlimit:2"
       id="path32" /><path
       style="fill:#6d00d0;stroke-width:0.29499"
       d="m 458.47,358.85 c -0.31112,10e-4 -0.71706,0.008 -0.90175,0.0151 -0.18484,0.007 -0.46891,0.0208 -0.63145,0.0308 -0.16254,0.01 -0.42841,0.0292 -0.59078,0.0428 -0.16237,0.0136 -0.43906,0.0395 -0.61505,0.0576 -0.17582,0.0182 -0.51171,0.0586 -0.74626,0.09 -0.23454,0.0313 -0.60358,0.0866 -0.82007,0.12268 -0.2165,0.0363 -0.5934,0.10563 -0.83744,0.1545 -0.24422,0.0487 -0.57635,0.11908 -0.73807,0.15614 -0.16188,0.0369 -0.45283,0.10809 -0.64688,0.15779 -0.19386,0.0498 -0.49646,0.13137 -0.67245,0.18123 -0.17582,0.0499 -0.506,0.14909 -0.73364,0.22043 -0.22749,0.0715 -0.5929,0.19337 -0.81187,0.27079 -0.21896,0.0776 -0.56045,0.20387 -0.75889,0.28096 -0.19845,0.0769 -0.52319,0.2083 -0.72166,0.29178 -0.19845,0.0835 -0.50484,0.21699 -0.68065,0.2967 -0.17583,0.0795 -0.55963,0.26439 -0.85288,0.41053 -0.29309,0.1463 -0.68065,0.34656 -0.86107,0.44514 -0.18041,0.0986 -0.48301,0.2698 -0.67245,0.38036 -0.18944,0.11071 -0.48089,0.28637 -0.64786,0.39051 -0.1668,0.10414 -0.45104,0.28685 -0.63145,0.40611 -0.18042,0.11923 -0.47187,0.31867 -0.64786,0.44301 -0.17582,0.12449 -0.46744,0.3372 -0.64785,0.47269 -0.18042,0.13564 -0.49039,0.37673 -0.68886,0.536 -0.19845,0.15925 -0.49531,0.4051 -0.65965,0.54631 -0.16434,0.14138 -0.42611,0.37314 -0.58175,0.515 -0.15565,0.14187 -0.42349,0.39446 -0.59505,0.56124 -0.17172,0.1668 -0.44939,0.44449 -0.61718,0.61718 -0.16778,0.17254 -0.42068,0.44071 -0.56192,0.5957 -0.14122,0.15516 -0.37231,0.41626 -0.51337,0.58027 -0.14105,0.16401 -0.39823,0.47532 -0.57142,0.69181 -0.1732,0.2165 -0.41446,0.52649 -0.53617,0.68886 -0.1217,0.16237 -0.32296,0.43906 -0.44727,0.61505 -0.12415,0.17582 -0.3236,0.46744 -0.44283,0.64785 -0.11941,0.18042 -0.30213,0.46449 -0.40611,0.63146 -0.10399,0.1668 -0.27965,0.45841 -0.39036,0.64785 -0.11055,0.18944 -0.28161,0.49204 -0.38004,0.67246 -0.0984,0.18041 -0.27767,0.52419 -0.39856,0.76413 -0.12071,0.23979 -0.29096,0.59045 -0.37838,0.77907 -0.0873,0.18862 -0.22519,0.49794 -0.30637,0.68738 -0.0814,0.18944 -0.21617,0.5178 -0.29983,0.72986 -0.0837,0.21207 -0.20174,0.5219 -0.2621,0.68886 -0.0605,0.16697 -0.16401,0.46579 -0.23011,0.66426 -0.0661,0.19845 -0.16893,0.52319 -0.22863,0.72166 -0.0599,0.19846 -0.15253,0.52319 -0.20617,0.72166 -0.0535,0.19846 -0.13809,0.5306 -0.18796,0.73806 -0.05,0.20748 -0.13072,0.5729 -0.17943,0.81187 -0.0489,0.23897 -0.11481,0.58225 -0.14662,0.76266 -0.0318,0.18042 -0.0764,0.44989 -0.0992,0.59865 -0.0228,0.14876 -0.0595,0.41086 -0.0818,0.58225 -0.0222,0.1714 -0.0554,0.45547 -0.0738,0.63146 -0.0184,0.17582 -0.0444,0.45269 -0.0577,0.61505 -0.0134,0.16237 -0.0323,0.42431 -0.0417,0.58225 -0.01,0.15778 -0.0244,0.47154 -0.0331,0.69705 -0.009,0.22552 -0.0159,0.63883 -0.0159,0.91848 0,0.27964 0.007,0.69656 0.0159,0.92668 0.009,0.22995 0.0235,0.54732 0.033,0.70526 0.01,0.15778 0.0284,0.41989 0.0418,0.58225 0.0133,0.16237 0.0394,0.43906 0.0577,0.61505 0.0184,0.17582 0.0517,0.46006 0.074,0.63145 0.0222,0.1714 0.0625,0.45546 0.0897,0.63145 0.0271,0.17583 0.0677,0.42317 0.0902,0.54945 0.0225,0.12629 0.0746,0.39939 0.11579,0.60685 0.0412,0.20748 0.1112,0.53582 0.15581,0.72986 0.0444,0.19387 0.11809,0.49647 0.16353,0.67246 0.0453,0.17582 0.12333,0.46366 0.1732,0.63965 0.0498,0.17583 0.14925,0.506 0.22059,0.73364 0.0715,0.22749 0.19338,0.5929 0.27079,0.81187 0.0776,0.21896 0.20387,0.56042 0.28096,0.75889 0.0769,0.19845 0.2083,0.52319 0.29178,0.72166 0.0835,0.19845 0.21699,0.50484 0.2967,0.68065 0.0795,0.17583 0.26439,0.55963 0.41053,0.85288 0.14614,0.29309 0.34443,0.67705 0.44072,0.85287 0.0964,0.17582 0.26717,0.47761 0.37968,0.67066 0.11251,0.19288 0.29014,0.48811 0.3946,0.65605 0.10464,0.16779 0.28768,0.45284 0.40709,0.63325 0.11924,0.18042 0.31867,0.47187 0.44301,0.64786 0.12449,0.17582 0.33706,0.46744 0.47269,0.64785 0.13548,0.18042 0.37691,0.49039 0.53617,0.68886 0.15942,0.19846 0.40529,0.49531 0.5465,0.65965 0.14122,0.16434 0.37281,0.42611 0.51467,0.58193 0.14187,0.15565 0.39133,0.41988 0.55437,0.58685 0.16303,0.16713 0.42874,0.43284 0.59045,0.59077 0.16172,0.15778 0.3864,0.37231 0.49909,0.47662 0.11284,0.10431 0.30472,0.27783 0.42644,0.38561 0.12186,0.10775 0.31375,0.27406 0.42643,0.36953 0.11284,0.0956 0.35641,0.29522 0.54125,0.44366 0.18501,0.14827 0.48384,0.38068 0.66425,0.51614 0.18042,0.13564 0.47204,0.34821 0.64786,0.47269 0.17598,0.12433 0.46744,0.32378 0.64785,0.44302 0.18042,0.1194 0.46546,0.30245 0.63325,0.40708 0.16795,0.10448 0.46317,0.28211 0.65606,0.39461 0.19304,0.11251 0.49484,0.28292 0.67066,0.37888 0.17582,0.0958 0.51549,0.27276 0.75446,0.39331 0.23913,0.12055 0.58847,0.29047 0.77662,0.37773 0.18796,0.0873 0.49794,0.22552 0.68885,0.30738 0.19075,0.0818 0.52042,0.21715 0.73231,0.3008 0.21207,0.0837 0.5183,0.2001 0.68066,0.25882 0.16238,0.0586 0.43924,0.15499 0.61505,0.21403 0.17583,0.0592 0.42924,0.14122 0.56272,0.18239 0.13368,0.041 0.39576,0.11841 0.58225,0.17188 0.18665,0.0533 0.48334,0.13417 0.65918,0.17943 0.17599,0.0454 0.46744,0.11629 0.64786,0.15779 0.18041,0.0415 0.50517,0.11136 0.72166,0.15515 0.2165,0.044 0.5929,0.11334 0.83647,0.15434 0.24356,0.041 0.57945,0.0932 0.74626,0.11596 0.16697,0.023 0.42889,0.0561 0.58225,0.074 0.15335,0.0177 0.39331,0.0435 0.53305,0.0569 0.1399,0.0136 0.40183,0.0356 0.58225,0.0492 0.18041,0.0135 0.49416,0.0338 0.69705,0.0451 0.2147,0.0121 0.75644,0.0207 1.2957,0.0207 0.54222,0 1.0797,-0.009 1.2957,-0.0207 0.20305,-0.0115 0.51664,-0.0317 0.69706,-0.0448 0.18042,-0.0133 0.44611,-0.0354 0.59045,-0.0494 0.14433,-0.014 0.41381,-0.0435 0.59865,-0.0656 0.18501,-0.022 0.41741,-0.0517 0.51664,-0.0656 0.0992,-0.014 0.32066,-0.0476 0.49204,-0.0745 0.1714,-0.0271 0.47039,-0.0782 0.66426,-0.11366 0.19386,-0.0356 0.45974,-0.0871 0.59045,-0.11448 0.13088,-0.0274 0.39658,-0.0864 0.59045,-0.13121 0.19386,-0.0448 0.5224,-0.12613 0.72986,-0.18075 0.20748,-0.0545 0.55437,-0.15105 0.77087,-0.21469 0.21649,-0.0635 0.6003,-0.18435 0.85287,-0.26833 0.25258,-0.084 0.61882,-0.21207 0.81399,-0.2844 0.19501,-0.0725 0.52714,-0.20141 0.73806,-0.28669 0.21076,-0.0854 0.52729,-0.21814 0.70314,-0.29505 0.17598,-0.0769 0.44168,-0.19665 0.59045,-0.2662 0.14876,-0.0695 0.45891,-0.22125 0.68885,-0.33705 0.23012,-0.11579 0.5437,-0.27833 0.69706,-0.36115 0.15336,-0.0827 0.42644,-0.2352 0.60668,-0.33886 0.18041,-0.10382 0.49039,-0.2885 0.68885,-0.41068 0.19863,-0.12219 0.54927,-0.3477 0.77925,-0.50107 0.23011,-0.15352 0.53272,-0.36018 0.67245,-0.45941 0.13991,-0.0992 0.38709,-0.27981 0.54945,-0.40134 0.16237,-0.12153 0.47236,-0.36295 0.68886,-0.53649 0.2165,-0.17353 0.52682,-0.42989 0.68968,-0.56963 0.16287,-0.13957 0.42496,-0.37115 0.58225,-0.51434 0.15745,-0.14318 0.42266,-0.39381 0.58962,-0.55682 0.1668,-0.16303 0.43266,-0.42874 0.59045,-0.59045 0.15795,-0.16172 0.37231,-0.38641 0.47647,-0.49909 0.10415,-0.11284 0.27439,-0.30098 0.3782,-0.41824 0.10382,-0.11727 0.2703,-0.30917 0.36986,-0.42643 0.0994,-0.11727 0.30228,-0.36461 0.45071,-0.54945 0.14844,-0.18501 0.38069,-0.48384 0.51615,-0.66425 0.13531,-0.18042 0.32737,-0.44252 0.42676,-0.58225 0.0994,-0.13991 0.29882,-0.43136 0.44316,-0.64786 0.14433,-0.2165 0.3482,-0.53107 0.45284,-0.69885 0.10463,-0.16795 0.28226,-0.46317 0.39478,-0.65606 0.11251,-0.19304 0.28309,-0.49481 0.37903,-0.67066 0.096,-0.17582 0.27292,-0.51549 0.39331,-0.75446 0.12039,-0.23913 0.2903,-0.58847 0.37755,-0.77662 0.0873,-0.18796 0.22552,-0.49794 0.30738,-0.68886 0.0818,-0.19074 0.21716,-0.52041 0.3008,-0.7323 0.0836,-0.21208 0.20158,-0.52208 0.26193,-0.68886 0.0604,-0.16697 0.16385,-0.46579 0.23011,-0.66426 0.0663,-0.19846 0.17206,-0.53434 0.2352,-0.74626 0.0632,-0.21207 0.14794,-0.50729 0.18862,-0.65606 0.0407,-0.14892 0.0999,-0.37395 0.13154,-0.50024 0.0317,-0.12629 0.0943,-0.39198 0.13908,-0.59045 0.0448,-0.19845 0.11497,-0.53059 0.15598,-0.73806 0.041,-0.20748 0.10414,-0.55437 0.14023,-0.77086 0.0361,-0.2165 0.0877,-0.556 0.11465,-0.75447 0.0269,-0.19845 0.0676,-0.53059 0.0904,-0.73806 0.0226,-0.20748 0.0561,-0.56912 0.074,-0.80367 0.0181,-0.23454 0.0421,-0.59257 0.0535,-0.79546 0.0118,-0.21355 0.0205,-0.75939 0.0205,-1.2957 0,-0.53632 -0.009,-1.0822 -0.0205,-1.2957 -0.0113,-0.20305 -0.0354,-0.56092 -0.0535,-0.79547 -0.0179,-0.23454 -0.0513,-0.5962 -0.074,-0.80367 -0.0228,-0.20747 -0.0633,-0.53959 -0.0902,-0.73806 -0.0269,-0.19845 -0.0825,-0.56009 -0.12351,-0.80367 -0.041,-0.24356 -0.11119,-0.62375 -0.15597,-0.84467 -0.0448,-0.22109 -0.1112,-0.53106 -0.14745,-0.68885 -0.0362,-0.15795 -0.0917,-0.39036 -0.12334,-0.51665 -0.0316,-0.12629 -0.0979,-0.37723 -0.14745,-0.55764 -0.0495,-0.18042 -0.13449,-0.47564 -0.18894,-0.65606 -0.0543,-0.18041 -0.15286,-0.49039 -0.21896,-0.68886 -0.0661,-0.19845 -0.16959,-0.49729 -0.22995,-0.66425 -0.0603,-0.16697 -0.17828,-0.47679 -0.26193,-0.68886 -0.0836,-0.21207 -0.21896,-0.54157 -0.3008,-0.73249 -0.0818,-0.19075 -0.22355,-0.50812 -0.3149,-0.70526 -0.0914,-0.19698 -0.28276,-0.58699 -0.42514,-0.86664 -0.14236,-0.27965 -0.3495,-0.67081 -0.46021,-0.86928 -0.11087,-0.19845 -0.30112,-0.52697 -0.42298,-0.72986 -0.12186,-0.20305 -0.31393,-0.51304 -0.42661,-0.68886 -0.11285,-0.17598 -0.27555,-0.42316 -0.36166,-0.54944 -0.0863,-0.12629 -0.23782,-0.34411 -0.33688,-0.48384 -0.0992,-0.13991 -0.29112,-0.40184 -0.42643,-0.58225 -0.13548,-0.18042 -0.37673,-0.49039 -0.536,-0.68886 -0.15942,-0.19846 -0.40528,-0.49532 -0.54649,-0.65965 -0.14122,-0.16434 -0.37281,-0.42611 -0.51467,-0.58175 -0.14187,-0.15565 -0.39723,-0.42611 -0.56732,-0.60078 -0.17009,-0.17467 -0.44694,-0.45168 -0.61538,-0.61555 -0.16828,-0.16368 -0.42759,-0.40838 -0.57635,-0.54387 -0.1486,-0.13531 -0.37723,-0.33868 -0.50812,-0.45201 -0.13072,-0.11334 -0.34475,-0.29424 -0.47564,-0.40234 -0.13072,-0.10792 -0.30785,-0.25176 -0.39363,-0.3195 -0.0856,-0.0679 -0.26652,-0.2083 -0.40183,-0.31213 -0.13532,-0.10398 -0.34198,-0.25897 -0.45924,-0.3446 -0.11727,-0.0855 -0.36821,-0.26308 -0.55765,-0.39461 -0.18944,-0.13137 -0.48089,-0.3272 -0.64785,-0.43514 -0.16681,-0.10792 -0.45497,-0.28883 -0.64031,-0.40201 -0.18533,-0.11317 -0.46744,-0.28013 -0.62702,-0.371 -0.15976,-0.091 -0.43252,-0.24225 -0.60621,-0.33623 -0.17385,-0.094 -0.50056,-0.26308 -0.72608,-0.37576 -0.22552,-0.11284 -0.54732,-0.26816 -0.71526,-0.3454 -0.16795,-0.0772 -0.44464,-0.20059 -0.61505,-0.27423 -0.17041,-0.0736 -0.45744,-0.19305 -0.63786,-0.26538 -0.18041,-0.0722 -0.48679,-0.19042 -0.68065,-0.26242 -0.19387,-0.0722 -0.5593,-0.19993 -0.81187,-0.28391 -0.25258,-0.084 -0.63638,-0.20485 -0.85287,-0.26833 -0.2165,-0.0636 -0.5634,-0.16024 -0.77087,-0.21485 -0.20748,-0.0545 -0.5506,-0.13909 -0.76266,-0.18813 -0.21207,-0.0489 -0.55143,-0.12219 -0.75447,-0.16286 -0.20288,-0.0407 -0.52024,-0.0999 -0.70526,-0.13171 -0.18484,-0.0317 -0.46168,-0.0761 -0.61505,-0.0986 -0.15335,-0.0225 -0.42643,-0.0595 -0.60685,-0.0823 -0.18041,-0.023 -0.51992,-0.06 -0.75446,-0.0825 -0.23454,-0.0225 -0.60358,-0.0522 -0.82007,-0.0658 -0.21829,-0.0206 -0.59293,-0.0392 -0.83187,-0.0482 -0.23894,-0.009 -0.68732,-0.0151 -0.99942,-0.0138 z m 0.008,2.9522 c 0.29768,-0.001 0.72216,0.005 0.94308,0.0138 0.22109,0.009 0.5237,0.024 0.67246,0.0335 0.14892,0.01 0.39248,0.0282 0.54124,0.0415 0.14893,0.0133 0.40727,0.0392 0.57405,0.0576 0.16697,0.0182 0.43629,0.0517 0.59865,0.0741 0.16238,0.0225 0.45021,0.0666 0.63966,0.0981 0.18943,0.0315 0.51419,0.0909 0.72166,0.1317 0.20747,0.041 0.53599,0.11088 0.72986,0.15565 0.19386,0.0446 0.50714,0.12202 0.69591,0.17221 0.18861,0.0502 0.48024,0.13154 0.64785,0.18091 0.16746,0.0494 0.47434,0.14565 0.68181,0.21387 0.20748,0.0682 0.52484,0.17796 0.70526,0.24389 0.18041,0.0658 0.41298,0.1527 0.51664,0.19305 0.10366,0.0403 0.29933,0.11923 0.43464,0.17516 0.13531,0.0559 0.37148,0.15729 0.52484,0.22519 0.15335,0.0681 0.44791,0.20437 0.6544,0.30293 0.20666,0.0987 0.5314,0.26111 0.72167,0.36101 0.19042,0.0999 0.46416,0.24815 0.6085,0.32917 0.14433,0.0812 0.41003,0.23602 0.59045,0.34411 0.18041,0.10808 0.44989,0.27472 0.59865,0.37033 0.14876,0.0955 0.37396,0.24372 0.50024,0.32917 0.12629,0.0856 0.33295,0.2293 0.45924,0.31951 0.12629,0.09 0.3477,0.25241 0.49204,0.3605 0.14433,0.10825 0.40266,0.309 0.57405,0.44597 0.17139,0.13695 0.44611,0.3646 0.61045,0.50581 0.16434,0.14122 0.42626,0.37249 0.58225,0.5142 0.15581,0.14154 0.49401,0.46809 0.75133,0.72544 0.25734,0.25733 0.5839,0.59552 0.72544,0.75133 0.14171,0.15598 0.37248,0.41726 0.51287,0.58078 0.14039,0.16352 0.35345,0.41971 0.47351,0.56944 0.12023,0.14958 0.32148,0.40856 0.44727,0.57553 0.12596,0.1668 0.31047,0.41773 0.41021,0.55764 0.0997,0.13974 0.3031,0.43874 0.45201,0.66426 0.14876,0.22552 0.3413,0.52549 0.42773,0.6667 0.0866,0.14105 0.24159,0.40313 0.34461,0.58225 0.10316,0.1791 0.26242,0.46579 0.3541,0.63721 0.0915,0.17139 0.25012,0.48139 0.35231,0.68885 0.10218,0.20748 0.25258,0.52485 0.33425,0.70526 0.0818,0.18042 0.21896,0.49859 0.30472,0.70691 0.0858,0.20847 0.22585,0.5665 0.31113,0.79547 0.0853,0.22913 0.21797,0.6085 0.29489,0.84302 0.0768,0.23454 0.18042,0.56667 0.23028,0.73806 0.0499,0.1714 0.12399,0.43709 0.16451,0.59045 0.0407,0.15336 0.10742,0.42069 0.14859,0.59405 0.041,0.17336 0.11104,0.49434 0.15532,0.71346 0.0445,0.21896 0.11071,0.57535 0.14712,0.79187 0.0364,0.2165 0.0848,0.53009 0.10743,0.69706 0.0226,0.1668 0.0558,0.43251 0.0738,0.59045 0.0179,0.15778 0.0476,0.46776 0.0658,0.68885 0.0182,0.22093 0.0423,0.55683 0.0535,0.74627 0.0116,0.19714 0.0203,0.71968 0.0203,1.2219 0,0.50222 -0.009,1.0248 -0.0203,1.2219 -0.0111,0.18944 -0.0353,0.52517 -0.0535,0.74627 -0.0182,0.22092 -0.0479,0.53092 -0.0658,0.68885 -0.0181,0.15778 -0.0513,0.42349 -0.074,0.59045 -0.0226,0.1668 -0.0671,0.45842 -0.0986,0.64786 -0.0315,0.18943 -0.0909,0.51419 -0.13171,0.72166 -0.0408,0.20747 -0.11038,0.53222 -0.1545,0.72166 -0.0441,0.18943 -0.113,0.46989 -0.15302,0.62325 -0.04,0.15335 -0.0925,0.34885 -0.11645,0.43464 -0.0241,0.0856 -0.0873,0.29965 -0.14023,0.47564 -0.0532,0.17582 -0.15648,0.49664 -0.22962,0.71263 -0.0732,0.21601 -0.18879,0.54074 -0.25701,0.72166 -0.0682,0.18091 -0.18206,0.47057 -0.25291,0.64393 -0.071,0.1732 -0.18895,0.44989 -0.2621,0.61505 -0.0731,0.165 -0.206,0.45234 -0.29522,0.63851 -0.0892,0.18615 -0.24422,0.49581 -0.34443,0.68788 -0.10021,0.19223 -0.25275,0.47532 -0.33903,0.62915 -0.0863,0.15385 -0.21601,0.37936 -0.28817,0.50122 -0.0723,0.1217 -0.20502,0.3395 -0.29523,0.48384 -0.09,0.14433 -0.25979,0.40626 -0.37723,0.58225 -0.1176,0.17582 -0.29473,0.43413 -0.39396,0.57405 -0.0992,0.13974 -0.28374,0.39068 -0.40985,0.55764 -0.12613,0.16681 -0.32933,0.42809 -0.45154,0.58045 -0.12219,0.15237 -0.33508,0.40856 -0.47334,0.5693 -0.1381,0.1609 -0.36706,0.42004 -0.50877,0.57603 -0.14171,0.15581 -0.46826,0.49401 -0.72544,0.75133 -0.25733,0.2575 -0.59537,0.5839 -0.75118,0.72559 -0.15598,0.14154 -0.41727,0.3723 -0.58078,0.51272 -0.16352,0.14039 -0.41971,0.35345 -0.56944,0.47351 -0.14958,0.12023 -0.40856,0.32148 -0.57553,0.44744 -0.1668,0.12597 -0.41773,0.31033 -0.55764,0.40954 -0.13974,0.0992 -0.39806,0.27636 -0.57405,0.39395 -0.17583,0.11744 -0.43791,0.28719 -0.58225,0.37723 -0.14433,0.0902 -0.36198,0.2229 -0.48384,0.29523 -0.12187,0.0722 -0.34951,0.20305 -0.506,0.2908 -0.15646,0.0879 -0.43693,0.23946 -0.62325,0.33687 -0.18632,0.0974 -0.49517,0.25193 -0.68656,0.34328 -0.1914,0.0912 -0.48286,0.22585 -0.64785,0.299 -0.165,0.0731 -0.42546,0.18485 -0.5788,0.24816 -0.15335,0.0635 -0.47071,0.18713 -0.70526,0.27505 -0.23454,0.0879 -0.62933,0.22666 -0.87747,0.30817 -0.24799,0.0815 -0.59128,0.18911 -0.76267,0.23897 -0.17139,0.0499 -0.45546,0.12859 -0.63145,0.17484 -0.17582,0.0462 -0.47481,0.11989 -0.66425,0.16352 -0.18944,0.0438 -0.5142,0.11301 -0.72166,0.15385 -0.20748,0.041 -0.51107,0.0969 -0.67458,0.12432 -0.16353,0.0274 -0.42184,0.0679 -0.57405,0.09 -0.15221,0.0222 -0.43906,0.0587 -0.63753,0.0813 -0.19846,0.0226 -0.54157,0.0561 -0.76267,0.0743 -0.22092,0.0181 -0.53469,0.0407 -0.69706,0.0502 -0.16237,0.01 -0.59045,0.0218 -0.95128,0.0274 -0.39938,0.006 -0.84532,0.002 -1.1399,-0.009 -0.26603,-0.0105 -0.63883,-0.03 -0.82827,-0.0436 -0.18944,-0.0134 -0.46251,-0.0356 -0.60685,-0.049 -0.14433,-0.0136 -0.38788,-0.0395 -0.54125,-0.0577 -0.15335,-0.0181 -0.38575,-0.0477 -0.51664,-0.0659 -0.13072,-0.0181 -0.37068,-0.055 -0.53305,-0.0819 -0.16237,-0.027 -0.4133,-0.0713 -0.55764,-0.0987 -0.14433,-0.0274 -0.40266,-0.0792 -0.57405,-0.11547 -0.17139,-0.0361 -0.50352,-0.1135 -0.73806,-0.17189 -0.23454,-0.0584 -0.60718,-0.15811 -0.82827,-0.22142 -0.22093,-0.0635 -0.5716,-0.17106 -0.77907,-0.23896 -0.20747,-0.0681 -0.51009,-0.17156 -0.67245,-0.22995 -0.16238,-0.0584 -0.45022,-0.1673 -0.63966,-0.24208 -0.18943,-0.0748 -0.46859,-0.18846 -0.6203,-0.25275 -0.15171,-0.0645 -0.40626,-0.17681 -0.56585,-0.24979 -0.15942,-0.073 -0.48549,-0.23044 -0.72461,-0.34968 -0.23897,-0.11941 -0.56372,-0.28752 -0.72166,-0.37364 -0.15778,-0.0859 -0.42201,-0.23519 -0.58717,-0.3313 -0.165,-0.0961 -0.43547,-0.25881 -0.60078,-0.36148 -0.16549,-0.10251 -0.45661,-0.29063 -0.64703,-0.41773 -0.19025,-0.12711 -0.46614,-0.3172 -0.61275,-0.42234 -0.14662,-0.10513 -0.36853,-0.268 -0.49286,-0.36165 -0.12433,-0.0938 -0.35691,-0.27473 -0.51665,-0.40234 -0.15975,-0.1276 -0.3864,-0.31292 -0.50369,-0.41216 -0.11727,-0.0991 -0.27226,-0.23224 -0.34443,-0.29587 -0.0722,-0.0638 -0.25291,-0.22651 -0.40183,-0.36166 -0.14876,-0.13515 -0.47744,-0.45251 -0.73037,-0.70543 -0.25274,-0.25275 -0.57552,-0.58718 -0.71723,-0.74299 -0.14171,-0.15598 -0.37248,-0.41726 -0.51287,-0.58078 -0.1404,-0.16352 -0.35346,-0.41971 -0.47352,-0.56944 -0.12022,-0.14958 -0.32147,-0.40874 -0.44758,-0.57553 -0.12597,-0.16696 -0.31065,-0.41791 -0.41021,-0.55764 -0.0997,-0.13991 -0.31033,-0.44989 -0.46809,-0.68886 -0.15778,-0.23913 -0.38673,-0.60077 -0.50862,-0.80367 -0.12203,-0.20305 -0.29162,-0.49449 -0.37706,-0.64785 -0.0856,-0.15335 -0.23322,-0.42644 -0.3282,-0.60685 -0.095,-0.18042 -0.25373,-0.4978 -0.35281,-0.70526 -0.0991,-0.20748 -0.23568,-0.50269 -0.30375,-0.65606 -0.0679,-0.15335 -0.16926,-0.38953 -0.22519,-0.52484 -0.0559,-0.13531 -0.13482,-0.33098 -0.17517,-0.43464 -0.0403,-0.10382 -0.12727,-0.33623 -0.19304,-0.51664 -0.0659,-0.18042 -0.17566,-0.49779 -0.24389,-0.70526 -0.0682,-0.20748 -0.1645,-0.51434 -0.21387,-0.68181 -0.0494,-0.16762 -0.13072,-0.45924 -0.18091,-0.64785 -0.0502,-0.18878 -0.1276,-0.50204 -0.17221,-0.69591 -0.0448,-0.19403 -0.11465,-0.5224 -0.15565,-0.72986 -0.0408,-0.20748 -0.10021,-0.53222 -0.1317,-0.72166 -0.0317,-0.18944 -0.0761,-0.48107 -0.0987,-0.64786 -0.0228,-0.16696 -0.0523,-0.39938 -0.0658,-0.51664 -0.0133,-0.11727 -0.0354,-0.3277 -0.049,-0.46744 -0.0138,-0.1399 -0.0359,-0.41298 -0.0494,-0.60685 -0.0135,-0.19403 -0.033,-0.57045 -0.0435,-0.83647 -0.0116,-0.29424 -0.0153,-0.74084 -0.009,-1.1399 0.006,-0.36083 0.0177,-0.78529 0.0271,-0.94308 0.009,-0.15794 0.0282,-0.43463 0.042,-0.61505 0.0138,-0.18041 0.0431,-0.49416 0.0654,-0.69706 0.0221,-0.20305 0.059,-0.50564 0.082,-0.67245 0.023,-0.16697 0.0674,-0.45841 0.0991,-0.64786 0.0315,-0.18943 0.0909,-0.51419 0.13171,-0.72166 0.041,-0.20747 0.11087,-0.53599 0.15564,-0.72986 0.0446,-0.19386 0.12203,-0.50714 0.17222,-0.69591 0.0502,-0.18861 0.13154,-0.48024 0.18091,-0.64785 0.0494,-0.16746 0.14941,-0.48549 0.2224,-0.70641 0.0728,-0.22109 0.18255,-0.5383 0.24356,-0.70526 0.0608,-0.16697 0.15877,-0.42529 0.21732,-0.57405 0.0586,-0.14876 0.15827,-0.39248 0.22158,-0.54124 0.0633,-0.14876 0.17418,-0.39986 0.24619,-0.55765 0.072,-0.15795 0.19337,-0.41626 0.26964,-0.57405 0.0761,-0.15794 0.21075,-0.42348 0.299,-0.59045 0.0882,-0.16696 0.23044,-0.42888 0.31605,-0.58225 0.0856,-0.15335 0.25783,-0.44891 0.38263,-0.65688 0.12465,-0.2078 0.35885,-0.5775 0.52042,-0.82137 0.16139,-0.24388 0.36968,-0.54977 0.46283,-0.67983 0.0932,-0.13006 0.28063,-0.38413 0.41659,-0.56455 0.1358,-0.18041 0.3459,-0.44988 0.46679,-0.59865 0.12088,-0.14892 0.32752,-0.39575 0.45941,-0.54879 0.13171,-0.15303 0.35361,-0.40396 0.4932,-0.55765 0.13957,-0.15368 0.46431,-0.49006 0.72166,-0.74741 0.25733,-0.25734 0.59404,-0.58258 0.74838,-0.72264 0.15418,-0.14006 0.40889,-0.3651 0.56585,-0.49991 0.15696,-0.13482 0.39986,-0.33788 0.53959,-0.45122 0.13991,-0.11333 0.39083,-0.30965 0.55765,-0.43611 0.16697,-0.12662 0.42349,-0.31605 0.57013,-0.42119 0.14662,-0.10496 0.41971,-0.29309 0.60685,-0.41805 0.18714,-0.12482 0.45826,-0.3008 0.60257,-0.39101 0.14433,-0.09 0.38788,-0.23799 0.54125,-0.32853 0.15335,-0.0904 0.38593,-0.22371 0.51664,-0.29605 0.13072,-0.0723 0.35213,-0.19206 0.49204,-0.2662 0.1399,-0.0741 0.39083,-0.20108 0.55765,-0.28243 0.16696,-0.0813 0.3477,-0.16811 0.40183,-0.19304 0.0541,-0.0249 0.18337,-0.0841 0.28702,-0.1317 0.10383,-0.0474 0.29195,-0.13023 0.41824,-0.18419 0.12629,-0.0538 0.39198,-0.1627 0.59045,-0.24192 0.19846,-0.0792 0.46794,-0.18271 0.59865,-0.22995 0.13088,-0.0472 0.37806,-0.13318 0.54945,-0.19108 0.17139,-0.0579 0.45186,-0.14859 0.62325,-0.20141 0.17139,-0.053 0.47399,-0.14055 0.67245,-0.19484 0.19846,-0.0541 0.5306,-0.13942 0.73807,-0.18944 0.20747,-0.05 0.52484,-0.12104 0.70526,-0.15778 0.18041,-0.0369 0.46826,-0.0922 0.63965,-0.12285 0.17139,-0.0308 0.43349,-0.0746 0.58225,-0.0974 0.14892,-0.0228 0.41823,-0.06 0.59865,-0.0827 0.18041,-0.0226 0.47204,-0.0556 0.64785,-0.0733 0.17599,-0.0177 0.49334,-0.0441 0.70526,-0.0586 0.21207,-0.0146 0.52945,-0.0323 0.70526,-0.0394 0.17599,-0.007 0.5634,-0.0141 0.86107,-0.0154 z m 0.22142,0.97344 c -0.5547,-0.003 -1.1268,9.7e-4 -1.2711,0.009 -0.14433,0.008 -0.41363,0.0259 -0.59865,0.0402 -0.18484,0.0144 -0.48006,0.0408 -0.65605,0.0589 -0.17582,0.0182 -0.45629,0.0513 -0.62325,0.0738 -0.1668,0.0225 -0.42151,0.0594 -0.56585,0.0822 -0.14433,0.0228 -0.40266,0.0671 -0.57405,0.0984 -0.17139,0.0315 -0.45186,0.0872 -0.62325,0.124 -0.1714,0.0367 -0.47024,0.10595 -0.66426,0.154 -0.19386,0.0479 -0.46334,0.11777 -0.59865,0.155 -0.13531,0.0372 -0.38985,0.1112 -0.56584,0.16434 -0.17583,0.0531 -0.48219,0.15171 -0.68066,0.21912 -0.19846,0.0674 -0.48187,0.16779 -0.62998,0.22306 -0.14794,0.0553 -0.39888,0.1527 -0.55765,0.2165 -0.1586,0.064 -0.43003,0.17779 -0.60307,0.25323 -0.17287,0.0753 -0.47924,0.21519 -0.68066,0.3108 -0.20124,0.0956 -0.45826,0.22224 -0.5711,0.28145 -0.11267,0.0591 -0.30835,0.16287 -0.43463,0.23061 -0.12629,0.0677 -0.37724,0.20813 -0.55765,0.31195 -0.18042,0.10365 -0.46449,0.27357 -0.63145,0.37755 -0.1668,0.10399 -0.44644,0.2844 -0.62128,0.40101 -0.17484,0.11662 -0.42201,0.28637 -0.54945,0.37741 -0.12743,0.0909 -0.36065,0.26275 -0.51862,0.38183 -0.15778,0.11908 -0.39003,0.299 -0.51599,0.39971 -0.12596,0.10071 -0.35853,0.2926 -0.51664,0.42626 -0.15828,0.13384 -0.42054,0.36364 -0.5829,0.51057 -0.16237,0.14696 -0.50974,0.48186 -0.77184,0.74414 -0.26226,0.26242 -0.58717,0.59865 -0.72198,0.74756 -0.13482,0.14876 -0.33083,0.37018 -0.43529,0.49204 -0.10448,0.1217 -0.2926,0.34688 -0.41806,0.50024 -0.12547,0.15335 -0.35033,0.44119 -0.49974,0.63966 -0.14925,0.19845 -0.3418,0.46038 -0.42773,0.58224 -0.0859,0.12187 -0.24488,0.35429 -0.35296,0.51665 -0.10808,0.16237 -0.28145,0.43168 -0.38543,0.59865 -0.10398,0.16696 -0.27374,0.45104 -0.37755,0.63145 -0.10366,0.18042 -0.24029,0.42399 -0.30361,0.54125 -0.0633,0.11727 -0.16713,0.31277 -0.23076,0.43463 -0.0636,0.12187 -0.19387,0.38626 -0.28949,0.5875 -0.0958,0.20141 -0.23569,0.5078 -0.3113,0.68066 -0.0756,0.17303 -0.20764,0.49172 -0.29358,0.70821 -0.0859,0.2165 -0.20404,0.5265 -0.26243,0.68886 -0.0584,0.16237 -0.16204,0.46679 -0.23044,0.67638 -0.0684,0.20961 -0.17221,0.54912 -0.2306,0.75446 -0.0586,0.20534 -0.15024,0.55042 -0.20371,0.76694 -0.0536,0.2165 -0.1276,0.53387 -0.16434,0.70526 -0.0366,0.1714 -0.0923,0.45186 -0.12383,0.62325 -0.0313,0.1714 -0.0756,0.42971 -0.0984,0.57405 -0.0228,0.14433 -0.0597,0.39889 -0.0822,0.56585 -0.0225,0.1668 -0.0556,0.44726 -0.0736,0.62325 -0.018,0.17582 -0.0443,0.46744 -0.0581,0.64786 -0.0139,0.18041 -0.0326,0.47859 -0.0417,0.6626 -0.009,0.18386 -0.0166,0.66443 -0.0166,1.0677 0,0.40331 0.007,0.88388 0.0166,1.0677 0.009,0.18403 0.0277,0.48219 0.0417,0.66261 0.0138,0.18041 0.04,0.47186 0.0581,0.64785 0.018,0.17582 0.0512,0.45629 0.0736,0.62325 0.0225,0.1668 0.0594,0.42151 0.0822,0.56585 0.0228,0.14433 0.0671,0.40266 0.0984,0.57405 0.0315,0.17139 0.0871,0.45186 0.12383,0.62325 0.0366,0.1714 0.1135,0.49974 0.17091,0.72986 0.0574,0.22995 0.15269,0.58617 0.21157,0.79137 0.0591,0.20534 0.15975,0.53369 0.22388,0.72986 0.0643,0.19616 0.16451,0.48959 0.2229,0.65195 0.0582,0.16238 0.17631,0.47237 0.26225,0.68886 0.0859,0.2165 0.21798,0.53517 0.29359,0.70821 0.0756,0.17287 0.21551,0.47924 0.3113,0.68066 0.0956,0.20124 0.22584,0.46564 0.28948,0.5875 0.0636,0.1217 0.16746,0.31738 0.23077,0.43464 0.0633,0.11726 0.19993,0.36083 0.3036,0.54124 0.10382,0.18042 0.27358,0.46449 0.37756,0.63145 0.10398,0.1668 0.2844,0.44644 0.40101,0.62128 0.11661,0.17484 0.28653,0.42201 0.37755,0.54945 0.0909,0.12743 0.25406,0.34968 0.36231,0.49401 0.10841,0.14434 0.25241,0.33246 0.32015,0.41824 0.0676,0.0856 0.22962,0.28423 0.35968,0.44118 0.13022,0.15696 0.31522,0.37446 0.41086,0.48334 0.0958,0.10874 0.26603,0.29768 0.37838,0.41989 0.11235,0.12203 0.34853,0.36838 0.52485,0.54747 0.17631,0.17894 0.45726,0.45284 0.62407,0.6085 0.16697,0.15565 0.38461,0.35526 0.48384,0.44349 0.0992,0.0884 0.32803,0.28358 0.50845,0.43381 0.18041,0.15024 0.42773,0.35115 0.54944,0.44644 0.12187,0.0951 0.35066,0.26865 0.50845,0.38543 0.15794,0.11677 0.37198,0.2716 0.47564,0.3441 0.10382,0.0725 0.31047,0.21289 0.45923,0.31213 0.14893,0.0991 0.40724,0.26537 0.57405,0.36936 0.16697,0.10398 0.45384,0.27554 0.63768,0.38118 0.1837,0.10562 0.47154,0.26586 0.63965,0.35608 0.16795,0.0904 0.47154,0.24553 0.67444,0.34508 0.20305,0.0996 0.51337,0.24618 0.68968,0.32573 0.17648,0.0795 0.45532,0.20042 0.6198,0.26832 0.16434,0.0681 0.46284,0.18616 0.66328,0.26226 0.20043,0.0763 0.51945,0.19124 0.70886,0.2557 0.18944,0.0643 0.50237,0.16483 0.69559,0.22339 0.19304,0.0585 0.45513,0.13498 0.58224,0.17008 0.12711,0.0351 0.36724,0.0979 0.5337,0.13974 0.16647,0.0418 0.45053,0.10825 0.63145,0.14761 0.18091,0.0394 0.44694,0.094 0.59128,0.12137 0.14433,0.0274 0.39528,0.0718 0.55764,0.0989 0.16238,0.0269 0.42809,0.0674 0.59045,0.0899 0.16238,0.0225 0.43184,0.0559 0.59865,0.0743 0.16697,0.0184 0.43266,0.0443 0.59045,0.0577 0.15795,0.0134 0.41989,0.034 0.58225,0.0454 0.19567,0.0139 0.65735,0.0208 1.3695,0.0205 0.86024,-2.9e-4 1.1527,-0.006 1.4679,-0.0292 0.2165,-0.0157 0.50812,-0.0397 0.64785,-0.0531 0.13991,-0.0133 0.38346,-0.0394 0.54125,-0.0579 0.15795,-0.0185 0.43841,-0.0556 0.62325,-0.0825 0.18501,-0.0269 0.44334,-0.0672 0.57405,-0.0897 0.13088,-0.0225 0.42234,-0.0779 0.64785,-0.12334 0.22552,-0.0453 0.61703,-0.13302 0.86978,-0.19485 0.25291,-0.0617 0.6331,-0.16155 0.84467,-0.22191 0.21158,-0.0602 0.57667,-0.17238 0.81137,-0.2493 0.23454,-0.0768 0.58142,-0.19714 0.77086,-0.26718 0.18944,-0.0702 0.47546,-0.18009 0.63555,-0.24405 0.16008,-0.0641 0.44054,-0.18206 0.62326,-0.26193 0.18271,-0.0799 0.44661,-0.19928 0.58635,-0.26554 0.1399,-0.0661 0.40561,-0.19714 0.59045,-0.29129 0.185,-0.0941 0.45726,-0.23749 0.60505,-0.31853 0.14794,-0.0812 0.40248,-0.22519 0.56584,-0.32032 0.16336,-0.095 0.42626,-0.25406 0.58405,-0.35346 0.15795,-0.0992 0.40889,-0.26193 0.55765,-0.36133 0.14876,-0.0996 0.37018,-0.25094 0.49204,-0.33655 0.12186,-0.0855 0.35428,-0.25505 0.51664,-0.37691 0.16238,-0.12186 0.42446,-0.32508 0.58225,-0.45154 0.15795,-0.12662 0.38673,-0.31508 0.50845,-0.41874 0.12186,-0.10382 0.29161,-0.25127 0.37723,-0.32752 0.0858,-0.0764 0.29605,-0.26981 0.46744,-0.42971 0.17139,-0.15992 0.45186,-0.43367 0.62325,-0.60833 0.17156,-0.17451 0.39708,-0.40971 0.50139,-0.5224 0.10432,-0.11284 0.27407,-0.30097 0.37723,-0.41823 0.10317,-0.11727 0.26193,-0.30177 0.35263,-0.41003 0.0909,-0.10825 0.26505,-0.32228 0.38709,-0.47564 0.12186,-0.15336 0.32853,-0.42284 0.45891,-0.59865 0.13039,-0.17599 0.29638,-0.40479 0.36886,-0.50845 0.0725,-0.10382 0.21289,-0.31047 0.31212,-0.45924 0.0991,-0.14892 0.26538,-0.40726 0.36936,-0.57404 0.10399,-0.16697 0.27554,-0.45382 0.38118,-0.63768 0.10563,-0.1837 0.26571,-0.47154 0.35576,-0.63966 0.0902,-0.16794 0.24553,-0.47153 0.34525,-0.67443 0.0997,-0.20305 0.24767,-0.51599 0.32868,-0.69558 0.0809,-0.1796 0.20928,-0.47762 0.28539,-0.66228 0.0759,-0.18468 0.19271,-0.48057 0.25946,-0.65753 0.0668,-0.17697 0.17697,-0.48597 0.24504,-0.68674 0.0681,-0.20075 0.17549,-0.53664 0.23864,-0.74626 0.0632,-0.20977 0.15106,-0.51794 0.1955,-0.68476 0.0445,-0.16696 0.11826,-0.46218 0.16386,-0.65605 0.0457,-0.19403 0.11645,-0.51877 0.15696,-0.72166 0.0407,-0.20305 0.0997,-0.52402 0.13137,-0.71346 0.0315,-0.18944 0.0758,-0.47729 0.0983,-0.63965 0.0225,-0.16238 0.0559,-0.43187 0.0743,-0.59865 0.0184,-0.16697 0.0443,-0.43266 0.0577,-0.59045 0.0134,-0.15795 0.034,-0.41989 0.0454,-0.58225 0.0138,-0.1937 0.021,-0.65883 0.021,-1.3531 0,-0.69425 -0.007,-1.1594 -0.021,-1.3531 -0.0115,-0.16237 -0.032,-0.42446 -0.0454,-0.58225 -0.0135,-0.15795 -0.0394,-0.42363 -0.0577,-0.59045 -0.0184,-0.16697 -0.0518,-0.43629 -0.0741,-0.59865 -0.0225,-0.16237 -0.0736,-0.48909 -0.11383,-0.72608 -0.0402,-0.23717 -0.11071,-0.60981 -0.15679,-0.82827 -0.0461,-0.21864 -0.12318,-0.55618 -0.17123,-0.75004 -0.0481,-0.19387 -0.11777,-0.46334 -0.155,-0.59865 -0.0372,-0.13531 -0.11497,-0.40101 -0.1727,-0.59045 -0.0577,-0.18944 -0.15762,-0.49942 -0.22191,-0.68886 -0.0645,-0.18944 -0.17173,-0.48924 -0.23832,-0.66623 -0.0668,-0.17697 -0.18353,-0.47284 -0.25946,-0.65753 -0.0761,-0.18468 -0.20617,-0.48647 -0.28916,-0.67048 -0.083,-0.18419 -0.23831,-0.5119 -0.34508,-0.72839 -0.10694,-0.2165 -0.26209,-0.51909 -0.34475,-0.67246 -0.0828,-0.15335 -0.23552,-0.42643 -0.33951,-0.60685 -0.10382,-0.18041 -0.2739,-0.46449 -0.37788,-0.63145 -0.10398,-0.16697 -0.27013,-0.42528 -0.3692,-0.57405 -0.0992,-0.14876 -0.23963,-0.35558 -0.31213,-0.45924 -0.0725,-0.10365 -0.22732,-0.31785 -0.34411,-0.47564 -0.11678,-0.15794 -0.2903,-0.38673 -0.38543,-0.50844 -0.0953,-0.12186 -0.2962,-0.36903 -0.44643,-0.54945 -0.15024,-0.18041 -0.34541,-0.4092 -0.43382,-0.50844 -0.0882,-0.0992 -0.28784,-0.31702 -0.44348,-0.48384 -0.15565,-0.16697 -0.42956,-0.44776 -0.6085,-0.62408 -0.17911,-0.17631 -0.42529,-0.41248 -0.54733,-0.52484 -0.12202,-0.11235 -0.33065,-0.2995 -0.46366,-0.41594 -0.13302,-0.11644 -0.34328,-0.29572 -0.46711,-0.39855 -0.12383,-0.10284 -0.36544,-0.29606 -0.53683,-0.42939 -0.17139,-0.13334 -0.43708,-0.33393 -0.59044,-0.44564 -0.15336,-0.11169 -0.45597,-0.32213 -0.67246,-0.46762 -0.2165,-0.14548 -0.5301,-0.3495 -0.69706,-0.45333 -0.16697,-0.10399 -0.45104,-0.27391 -0.63145,-0.37774 -0.18042,-0.10382 -0.45349,-0.25651 -0.60685,-0.3395 -0.15336,-0.083 -0.47072,-0.24553 -0.70526,-0.36116 -0.23454,-0.11563 -0.59588,-0.28521 -0.80284,-0.37705 -0.20699,-0.0917 -0.55765,-0.23929 -0.77907,-0.32785 -0.22142,-0.0886 -0.5465,-0.21273 -0.72249,-0.27604 -0.17582,-0.0633 -0.48219,-0.16811 -0.68065,-0.23306 -0.19846,-0.0648 -0.52682,-0.16582 -0.72986,-0.22437 -0.20289,-0.0584 -0.5606,-0.15385 -0.79482,-0.21207 -0.23421,-0.0582 -0.5811,-0.13859 -0.77087,-0.17845 -0.18976,-0.0399 -0.46694,-0.0948 -0.6157,-0.12219 -0.14876,-0.0274 -0.41086,-0.0717 -0.58225,-0.0984 -0.17139,-0.0267 -0.49236,-0.071 -0.71346,-0.0986 -0.22092,-0.0274 -0.5716,-0.0646 -0.77906,-0.0827 -0.20748,-0.0181 -0.48794,-0.0408 -0.62325,-0.0509 -0.13532,-0.01 -0.69984,-0.0203 -1.2547,-0.0233 z m -0.008,0.44334 c 0.55027,0.002 1.1112,0.0128 1.2465,0.0228 0.13531,0.01 0.37525,0.0292 0.53304,0.0428 0.15795,0.0135 0.42366,0.0397 0.59045,0.0581 0.16697,0.0184 0.43266,0.0518 0.59045,0.0743 0.15795,0.0225 0.41989,0.063 0.58225,0.09 0.16237,0.0271 0.44661,0.0787 0.63145,0.11514 0.18501,0.0363 0.45071,0.0917 0.59045,0.12317 0.13991,0.0317 0.37231,0.0869 0.51664,0.12318 0.14434,0.0361 0.36954,0.095 0.50025,0.13105 0.13088,0.0359 0.3928,0.11251 0.58225,0.17024 0.18943,0.0576 0.48661,0.15336 0.66048,0.21257 0.17385,0.0594 0.43578,0.15253 0.58224,0.20715 0.14647,0.0546 0.41759,0.16056 0.60243,0.23552 0.18501,0.075 0.46237,0.19173 0.61653,0.25963 0.15417,0.0677 0.43676,0.1983 0.628,0.28998 0.1914,0.0917 0.48959,0.24077 0.66278,0.3313 0.17336,0.0905 0.42219,0.22405 0.5529,0.29688 0.13088,0.0728 0.38543,0.22043 0.56584,0.3282 0.18042,0.10776 0.44989,0.27407 0.59865,0.36968 0.14876,0.0955 0.36296,0.23635 0.47564,0.31293 0.11285,0.0766 0.30836,0.21289 0.43464,0.30278 0.12629,0.09 0.36608,0.26685 0.53305,0.39298 0.16696,0.12613 0.43578,0.33705 0.59767,0.46874 0.16189,0.1317 0.42381,0.3528 0.58225,0.49139 0.15844,0.13859 0.41726,0.37216 0.57502,0.51894 0.15795,0.14696 0.44579,0.42842 0.63983,0.62556 0.19403,0.19714 0.43399,0.44711 0.53355,0.55534 0.0994,0.10825 0.28391,0.3149 0.41003,0.45924 0.12613,0.14433 0.32573,0.38051 0.44367,0.52485 0.11776,0.14433 0.2995,0.37313 0.40381,0.50844 0.10431,0.13531 0.28374,0.37511 0.39888,0.53304 0.11497,0.15778 0.33918,0.48269 0.49794,0.72166 0.15893,0.23897 0.36346,0.5565 0.45464,0.70526 0.091,0.14876 0.23946,0.39971 0.32983,0.55765 0.0902,0.15778 0.21223,0.37558 0.27111,0.48384 0.0587,0.10825 0.20633,0.39608 0.32803,0.63965 0.1217,0.24356 0.28801,0.59045 0.36968,0.77087 0.0817,0.18041 0.21191,0.48219 0.28948,0.67048 0.0774,0.18829 0.19699,0.49089 0.26554,0.67245 0.0687,0.18157 0.18977,0.52568 0.26931,0.76465 0.0795,0.23896 0.19255,0.60062 0.25127,0.80366 0.0587,0.20289 0.13663,0.48334 0.17304,0.62326 0.0364,0.13973 0.0989,0.39445 0.13892,0.56584 0.04,0.1714 0.10628,0.4814 0.14728,0.68886 0.041,0.20748 0.0964,0.5101 0.1235,0.67246 0.0269,0.16237 0.0641,0.40216 0.0825,0.53304 0.0185,0.13072 0.0484,0.35953 0.0666,0.50844 0.0181,0.14876 0.0472,0.43299 0.0648,0.63146 0.0175,0.19845 0.0415,0.50107 0.0533,0.67245 0.0141,0.20486 0.0215,0.66296 0.0215,1.3367 0,0.67378 -0.007,1.1319 -0.0215,1.3367 -0.0118,0.17139 -0.0358,0.47399 -0.0533,0.67246 -0.0176,0.19845 -0.0468,0.48254 -0.0648,0.63145 -0.0182,0.14876 -0.048,0.37755 -0.0666,0.50844 -0.0184,0.13072 -0.0556,0.37068 -0.0827,0.53305 -0.0269,0.16237 -0.0787,0.44643 -0.11514,0.63145 -0.0364,0.18484 -0.0989,0.48006 -0.13892,0.65605 -0.04,0.17583 -0.10628,0.44892 -0.14728,0.60685 -0.0408,0.15779 -0.12236,0.45302 -0.18124,0.65606 -0.0587,0.20288 -0.16811,0.55355 -0.24307,0.77907 -0.075,0.22551 -0.19566,0.56862 -0.26832,0.76266 -0.0725,0.19386 -0.19583,0.50762 -0.27374,0.69706 -0.0781,0.18943 -0.20879,0.49204 -0.29047,0.67245 -0.0818,0.18042 -0.24454,0.51992 -0.36166,0.75447 -0.1171,0.23454 -0.28128,0.55189 -0.36475,0.70526 -0.0836,0.15335 -0.22027,0.3969 -0.30375,0.54124 -0.0835,0.14433 -0.22962,0.38788 -0.32475,0.54125 -0.0951,0.15335 -0.27555,0.43283 -0.40101,0.62095 -0.12547,0.18828 -0.30245,0.44661 -0.39346,0.57405 -0.0909,0.1276 -0.2575,0.3536 -0.37018,0.50254 -0.11268,0.14876 -0.29358,0.38133 -0.40216,0.51664 -0.10841,0.13531 -0.32392,0.39364 -0.47859,0.57405 -0.15482,0.18042 -0.38,0.43496 -0.50042,0.56585 -0.12038,0.13072 -0.37068,0.39166 -0.55599,0.57962 -0.1855,0.18796 -0.46629,0.46204 -0.62423,0.60915 -0.15778,0.14696 -0.39036,0.35771 -0.51664,0.46827 -0.12629,0.11054 -0.33968,0.29293 -0.47417,0.40511 -0.13465,0.11235 -0.37083,0.30213 -0.52484,0.42201 -0.15417,0.11989 -0.41316,0.31573 -0.57552,0.43496 -0.16238,0.11924 -0.5019,0.35475 -0.75447,0.52337 -0.25258,0.16861 -0.59062,0.3864 -0.75133,0.48416 -0.16074,0.0978 -0.45957,0.27309 -0.66426,0.38936 -0.20468,0.11628 -0.61192,0.3323 -0.9052,0.47974 -0.29309,0.14761 -0.68066,0.33508 -0.86107,0.41658 -0.18042,0.0817 -0.48219,0.21175 -0.67048,0.28932 -0.18829,0.0774 -0.49089,0.19698 -0.67246,0.26554 -0.18156,0.0687 -0.52567,0.18977 -0.76464,0.26931 -0.23897,0.0795 -0.60063,0.19272 -0.80367,0.25144 -0.20288,0.0589 -0.52779,0.14777 -0.72166,0.19747 -0.19386,0.0497 -0.48549,0.11957 -0.64785,0.15532 -0.16238,0.0358 -0.42809,0.091 -0.59045,0.12285 -0.16238,0.0318 -0.42809,0.0799 -0.59045,0.10677 -0.16238,0.0271 -0.40216,0.0643 -0.53305,0.0827 -0.13071,0.0185 -0.35953,0.0484 -0.50844,0.0666 -0.14876,0.0181 -0.43298,0.0472 -0.63145,0.0648 -0.19846,0.0176 -0.50107,0.0415 -0.67246,0.0533 -0.20485,0.0141 -0.66296,0.0215 -1.3367,0.0215 -0.67458,0 -1.1317,-0.007 -1.3367,-0.0215 -0.1714,-0.0118 -0.47399,-0.0359 -0.67246,-0.0535 -0.19846,-0.0177 -0.48254,-0.0469 -0.63145,-0.0648 -0.14876,-0.0181 -0.37756,-0.0479 -0.50845,-0.0664 -0.13071,-0.0184 -0.36953,-0.0554 -0.53041,-0.0823 -0.1609,-0.0269 -0.46352,-0.0822 -0.67246,-0.12318 -0.20895,-0.041 -0.58142,-0.12252 -0.82762,-0.18107 -0.24635,-0.0587 -0.6044,-0.15089 -0.79547,-0.20469 -0.19124,-0.0538 -0.51369,-0.14974 -0.71673,-0.21338 -0.20289,-0.0635 -0.53305,-0.17386 -0.73346,-0.2452 -0.20026,-0.0714 -0.50287,-0.18419 -0.67246,-0.25061 -0.16943,-0.0666 -0.42611,-0.17091 -0.57045,-0.23192 -0.14433,-0.061 -0.39888,-0.17353 -0.56585,-0.25012 -0.1668,-0.0766 -0.48056,-0.22765 -0.69705,-0.3359 -0.2165,-0.10842 -0.48219,-0.24488 -0.59045,-0.30343 -0.10825,-0.0586 -0.26325,-0.14384 -0.34443,-0.18944 -0.0812,-0.0456 -0.23618,-0.13481 -0.34443,-0.19812 -0.10825,-0.0633 -0.33098,-0.19813 -0.49499,-0.29965 -0.16385,-0.10137 -0.43334,-0.27473 -0.59865,-0.38494 -0.16516,-0.11038 -0.42957,-0.29292 -0.5875,-0.4056 -0.15778,-0.11268 -0.39396,-0.28604 -0.52485,-0.38544 -0.13072,-0.0992 -0.33,-0.25422 -0.44283,-0.34443 -0.11268,-0.09 -0.26767,-0.21617 -0.34443,-0.27997 -0.0766,-0.064 -0.22421,-0.18976 -0.32803,-0.27964 -0.10366,-0.0899 -0.3067,-0.27062 -0.45104,-0.40166 -0.14433,-0.13121 -0.42003,-0.39345 -0.6126,-0.58307 -0.19255,-0.18944 -0.47417,-0.47744 -0.6257,-0.63983 -0.15139,-0.16238 -0.38871,-0.42479 -0.52715,-0.58322 -0.13859,-0.15844 -0.35953,-0.42036 -0.49107,-0.58225 -0.13153,-0.16188 -0.34263,-0.43086 -0.46891,-0.59768 -0.12629,-0.16697 -0.30472,-0.40874 -0.39676,-0.53732 -0.092,-0.12859 -0.28407,-0.41004 -0.42694,-0.62556 -0.14285,-0.21535 -0.34425,-0.53092 -0.44758,-0.70098 -0.1035,-0.17008 -0.25111,-0.42003 -0.32803,-0.55534 -0.0771,-0.13532 -0.18993,-0.33771 -0.25094,-0.44974 -0.0609,-0.11219 -0.20879,-0.40004 -0.32868,-0.63966 -0.11989,-0.23979 -0.28571,-0.58652 -0.36871,-0.77069 -0.0828,-0.18402 -0.21272,-0.48581 -0.28882,-0.67048 -0.0759,-0.18468 -0.19272,-0.48056 -0.25931,-0.65753 -0.0668,-0.17696 -0.17041,-0.46578 -0.23044,-0.64163 -0.0599,-0.17598 -0.1568,-0.47776 -0.21535,-0.67098 -0.0585,-0.19304 -0.13499,-0.45514 -0.17008,-0.58225 -0.0351,-0.12711 -0.0933,-0.34917 -0.12941,-0.49351 -0.0362,-0.14433 -0.0915,-0.37691 -0.12317,-0.51665 -0.0315,-0.1399 -0.0869,-0.40561 -0.12318,-0.59045 -0.0364,-0.185 -0.0881,-0.46909 -0.11514,-0.63145 -0.0269,-0.16237 -0.064,-0.39856 -0.0822,-0.52484 -0.0182,-0.12629 -0.0482,-0.3554 -0.0664,-0.50927 -0.0182,-0.15385 -0.0477,-0.44169 -0.0654,-0.63965 -0.0177,-0.19797 -0.0418,-0.49665 -0.0535,-0.66343 -0.014,-0.19945 -0.0212,-0.66066 -0.0212,-1.3449 0,-0.68425 0.007,-1.1455 0.0212,-1.3449 0.0116,-0.16697 0.0358,-0.46546 0.0535,-0.66343 0.0177,-0.19796 0.0472,-0.48582 0.0654,-0.63965 0.0182,-0.15385 0.0515,-0.40511 0.074,-0.55848 0.0223,-0.15335 0.0661,-0.42643 0.0973,-0.60685 0.0312,-0.18041 0.0904,-0.49416 0.1317,-0.69706 0.0413,-0.20305 0.11842,-0.54617 0.1714,-0.76266 0.053,-0.2165 0.12694,-0.50434 0.16417,-0.63965 0.0374,-0.13532 0.11514,-0.40101 0.17287,-0.59045 0.0576,-0.18944 0.15336,-0.48665 0.21257,-0.66048 0.0594,-0.17386 0.15253,-0.43579 0.20715,-0.58225 0.0546,-0.14647 0.16056,-0.41759 0.23552,-0.60243 0.075,-0.18501 0.19223,-0.46334 0.26046,-0.61865 0.0684,-0.15548 0.19616,-0.43219 0.28391,-0.61505 0.0877,-0.18304 0.23634,-0.48024 0.33032,-0.66066 0.0938,-0.18041 0.23012,-0.43514 0.30293,-0.56584 0.0728,-0.13089 0.23158,-0.40396 0.35313,-0.60686 0.12153,-0.20305 0.34263,-0.55354 0.49154,-0.77906 0.14876,-0.22552 0.34098,-0.50959 0.42726,-0.63145 0.0861,-0.12187 0.26784,-0.36904 0.40381,-0.54945 0.13597,-0.18042 0.34608,-0.44989 0.46694,-0.59865 0.12088,-0.14893 0.30227,-0.36658 0.40313,-0.48384 0.10087,-0.11727 0.28981,-0.33116 0.41989,-0.47532 0.13006,-0.14416 0.39888,-0.42741 0.59735,-0.62947 0.19846,-0.20191 0.49744,-0.49417 0.66426,-0.64951 0.16696,-0.15516 0.37363,-0.34425 0.45923,-0.42021 0.0858,-0.0761 0.20387,-0.17943 0.26243,-0.22979 0.0587,-0.0502 0.15466,-0.13153 0.21321,-0.18058 0.0587,-0.0492 0.20256,-0.16729 0.31983,-0.26242 0.11727,-0.0953 0.34983,-0.27636 0.51664,-0.40266 0.16697,-0.12612 0.41791,-0.31098 0.55765,-0.41068 0.1399,-0.0996 0.42773,-0.29555 0.63965,-0.43529 0.21207,-0.1399 0.49974,-0.32425 0.63966,-0.40985 0.1399,-0.0858 0.38345,-0.22946 0.54124,-0.31965 0.15795,-0.0901 0.38594,-0.21732 0.50679,-0.2826 0.12072,-0.0654 0.40856,-0.21322 0.63966,-0.32853 0.23093,-0.1153 0.5675,-0.27653 0.74791,-0.35803 0.18042,-0.0817 0.48302,-0.21223 0.67246,-0.2903 0.18943,-0.0779 0.49942,-0.19961 0.68886,-0.2703 0.18943,-0.0707 0.48744,-0.1773 0.66213,-0.23667 0.17467,-0.0595 0.48844,-0.15926 0.69706,-0.22175 0.20862,-0.0623 0.47531,-0.13957 0.59257,-0.17172 0.11727,-0.032 0.38051,-0.0987 0.5852,-0.14843 0.20452,-0.0499 0.53664,-0.124 0.73806,-0.16516 0.20125,-0.041 0.5137,-0.10005 0.69411,-0.13121 0.18042,-0.0312 0.45349,-0.075 0.60685,-0.0973 0.15335,-0.0225 0.40464,-0.0558 0.55847,-0.074 0.15385,-0.0182 0.44169,-0.0477 0.63966,-0.0654 0.19796,-0.0179 0.50024,-0.0402 0.67163,-0.0499 0.17139,-0.01 0.34853,-0.0199 0.39363,-0.0231 0.0451,-0.003 0.53222,-0.004 1.0825,-9.7e-4 z m -10.066,8.7187 -2.1436,-2.1468 -1.764,1.8286 c -0.97012,1.0056 -1.764,1.834 -1.764,1.841 0,0.007 0.95981,0.95179 2.1328,2.0997 1.17299,1.14791 2.1307,2.092 2.1281,2.0979 -0.003,0.006 -0.0669,0.11005 -0.14302,0.23158 -0.0759,0.12154 -0.20354,0.33541 -0.28342,0.47532 -0.0797,0.13974 -0.22896,0.42021 -0.33162,0.62325 -0.10268,0.20289 -0.23454,0.47597 -0.2931,0.60685 -0.0584,0.13072 -0.16188,0.37806 -0.22962,0.54945 -0.0679,0.17139 -0.16516,0.43348 -0.21633,0.58225 -0.051,0.14876 -0.13941,0.43298 -0.19649,0.63145 -0.0569,0.19846 -0.13744,0.51204 -0.17877,0.69706 -0.0415,0.18484 -0.0974,0.46531 -0.12433,0.62325 -0.0271,0.15778 -0.0641,0.40133 -0.0823,0.54125 -0.0182,0.13974 -0.0441,0.37593 -0.0576,0.52484 -0.0134,0.14876 -0.0323,0.46251 -0.0418,0.69706 -0.01,0.23454 -0.013,0.5593 -0.008,0.72166 0.005,0.16237 0.0169,0.41694 0.0258,0.56585 0.009,0.14876 0.0274,0.38133 0.0412,0.51664 0.0138,0.13531 0.0359,0.3272 0.0494,0.42644 0.0134,0.0992 0.0466,0.3095 0.0738,0.46744 0.0272,0.15778 0.0789,0.41988 0.11465,0.58224 0.0359,0.16238 0.10234,0.43054 0.14744,0.59603 0.0453,0.16549 0.12334,0.42741 0.17353,0.58225 0.0502,0.15483 0.13564,0.39953 0.19009,0.54387 0.0544,0.14433 0.14515,0.37313 0.20141,0.50844 0.0564,0.13531 0.16336,0.37511 0.23766,0.53305 0.0743,0.15778 0.1978,0.4051 0.27455,0.54944 0.0768,0.14433 0.19928,0.36576 0.2721,0.49204 0.0728,0.12629 0.18976,0.32163 0.26013,0.43432 l 0.12776,0.20452 -0.0943,0.0961 c -0.0517,0.0528 -1.0111,0.99344 -2.132,2.0904 -1.1209,1.0968 -2.0379,2 -2.0379,2.0072 0,0.007 0.79417,0.83614 1.7648,1.842 l 1.7646,1.8288 1.1744,-1.1845 c 0.64573,-0.65163 1.6101,-1.6221 2.1428,-2.1566 l 0.96866,-0.97179 0.16008,0.10694 c 0.0881,0.0589 0.26521,0.17238 0.39363,0.25209 0.12842,0.0797 0.35543,0.21289 0.50417,0.29605 0.14892,0.083 0.41086,0.22011 0.58224,0.3044 0.1714,0.0843 0.44087,0.2083 0.59866,0.27554 0.15794,0.0673 0.41625,0.17058 0.57404,0.22962 0.15795,0.0591 0.43104,0.15139 0.60685,0.20535 0.17599,0.0541 0.43432,0.12809 0.57405,0.1645 0.13991,0.0366 0.37608,0.0924 0.52485,0.124 0.14892,0.0317 0.40348,0.0797 0.56584,0.10677 0.16238,0.0271 0.41709,0.064 0.56585,0.0822 0.14893,0.0181 0.41464,0.0446 0.59045,0.0589 0.17599,0.0141 0.54502,0.0302 0.82007,0.0356 0.29965,0.006 0.64818,0.002 0.86927,-0.009 0.20305,-0.0105 0.49089,-0.03 0.63966,-0.0436 0.14892,-0.0136 0.41036,-0.0433 0.58127,-0.0659 0.17091,-0.0228 0.41069,-0.0597 0.53305,-0.082 0.12235,-0.0223 0.35903,-0.0707 0.52581,-0.10776 0.16697,-0.0369 0.44547,-0.10677 0.61916,-0.15499 0.17369,-0.0484 0.43561,-0.12793 0.58225,-0.17698 0.14662,-0.0489 0.37215,-0.13022 0.50139,-0.18057 0.12924,-0.0504 0.32475,-0.12957 0.43463,-0.17583 0.10989,-0.0462 0.33263,-0.14826 0.495,-0.22666 0.16237,-0.0782 0.39478,-0.19666 0.51664,-0.26292 0.12186,-0.0663 0.32098,-0.17959 0.44284,-0.25176 0.12186,-0.0723 0.34985,-0.21551 0.50696,-0.31835 l 0.28555,-0.18714 2.1501,2.1582 2.15,2.1581 1.7714,-1.8291 c 0.97423,-1.006 1.7714,-1.8358 1.7714,-1.8437 0,-0.008 -0.95211,-0.94538 -2.1158,-2.0832 -1.1637,-1.1379 -2.1225,-2.0786 -2.1305,-2.0907 -0.0102,-0.0151 0.0181,-0.0743 0.092,-0.19239 0.0587,-0.0938 0.17123,-0.28063 0.24979,-0.41511 0.0787,-0.13449 0.21601,-0.38166 0.30507,-0.54944 0.0891,-0.16763 0.23143,-0.45629 0.31656,-0.64113 0.085,-0.18501 0.21502,-0.48762 0.28899,-0.67246 0.074,-0.18501 0.18517,-0.48762 0.24733,-0.67246 0.062,-0.185 0.15303,-0.48056 0.20223,-0.6572 0.0492,-0.17648 0.11908,-0.45316 0.15532,-0.61505 0.0362,-0.16172 0.0845,-0.39741 0.10727,-0.5237 0.0226,-0.12629 0.0561,-0.32932 0.0745,-0.45104 0.0182,-0.12186 0.0479,-0.36543 0.0658,-0.54124 0.0179,-0.17599 0.0412,-0.47859 0.0518,-0.67246 0.0121,-0.21978 0.0159,-0.56272 0.01,-0.91027 -0.005,-0.3067 -0.021,-0.69051 -0.0351,-0.85288 -0.0143,-0.16237 -0.0448,-0.43923 -0.0679,-0.61505 -0.0231,-0.17598 -0.0671,-0.45679 -0.0976,-0.62422 -0.0303,-0.16746 -0.0859,-0.43694 -0.1235,-0.59865 -0.0374,-0.16188 -0.10448,-0.42349 -0.14909,-0.58128 -0.0446,-0.15794 -0.12941,-0.43104 -0.18829,-0.60685 -0.0589,-0.17599 -0.16106,-0.45629 -0.22683,-0.62325 -0.0659,-0.16697 -0.16418,-0.40299 -0.21863,-0.52485 -0.0543,-0.12186 -0.14269,-0.31375 -0.19632,-0.42643 -0.0538,-0.11284 -0.15877,-0.3195 -0.23339,-0.45924 -0.0746,-0.1399 -0.18009,-0.3318 -0.23438,-0.42644 -0.0543,-0.0948 -0.16828,-0.28521 -0.25307,-0.42316 -0.085,-0.1381 -0.15204,-0.25701 -0.14926,-0.26455 0.003,-0.007 0.96114,-0.94848 2.1292,-2.0912 1.1683,-1.1427 2.124,-2.0843 2.124,-2.0922 0,-0.008 -0.79712,-0.83729 -1.7714,-1.8427 l -1.7713,-1.8281 -2.1499,2.1483 -2.1499,2.1482 -0.21191,-0.13809 c -0.11661,-0.0759 -0.28932,-0.18583 -0.38413,-0.24422 -0.0946,-0.0586 -0.26439,-0.15811 -0.37723,-0.22158 -0.11268,-0.0635 -0.30458,-0.16779 -0.42644,-0.23159 -0.12186,-0.064 -0.3605,-0.1796 -0.53042,-0.25718 -0.17008,-0.0774 -0.44679,-0.19534 -0.61505,-0.26192 -0.16828,-0.0664 -0.45349,-0.16992 -0.63375,-0.22979 -0.18025,-0.0599 -0.44597,-0.14138 -0.59045,-0.18107 -0.1445,-0.0397 -0.39184,-0.10185 -0.54977,-0.13826 -0.15778,-0.0364 -0.43086,-0.0915 -0.60685,-0.12269 -0.17583,-0.031 -0.43792,-0.0715 -0.58225,-0.09 -0.14434,-0.0187 -0.38414,-0.0451 -0.53305,-0.0587 -0.14876,-0.0136 -0.44776,-0.0333 -0.66425,-0.0435 -0.22913,-0.0108 -0.58208,-0.0143 -0.84468,-0.008 -0.24798,0.006 -0.55437,0.0177 -0.68065,0.0269 -0.12629,0.009 -0.36986,0.0317 -0.54125,0.0499 -0.17139,0.0182 -0.43334,0.0518 -0.58225,0.0746 -0.14876,0.0228 -0.39971,0.0672 -0.55764,0.0986 -0.15778,0.0315 -0.43464,0.0945 -0.61506,0.14007 -0.18041,0.0456 -0.45711,0.12235 -0.61505,0.17057 -0.15778,0.0482 -0.37921,0.12055 -0.49204,0.16073 -0.11268,0.0404 -0.27144,0.0989 -0.35263,0.13007 -0.0812,0.0313 -0.278,0.11284 -0.43726,0.18107 -0.15926,0.0682 -0.43234,0.19534 -0.60685,0.28243 -0.17451,0.0871 -0.39838,0.20305 -0.49762,0.25767 -0.0992,0.0546 -0.29473,0.16778 -0.43463,0.25143 -0.13974,0.0835 -0.33903,0.2078 -0.44284,0.2762 l -0.18761,0.12478 z m 9.5653,4.9779 c 0.18501,0.004 0.42856,0.0148 0.54125,0.0236 0.11284,0.009 0.29734,0.0277 0.41003,0.0417 0.11284,0.0141 0.30472,0.0436 0.42644,0.0656 0.12186,0.0221 0.34277,0.0704 0.49121,0.10726 0.14827,0.0369 0.37953,0.10317 0.51387,0.14745 0.13433,0.0441 0.3377,0.11809 0.45201,0.16418 0.11416,0.0461 0.31328,0.13433 0.44252,0.196 0.12924,0.0617 0.3359,0.16942 0.45923,0.23946 0.12334,0.0702 0.32411,0.19419 0.44579,0.27554 0.12186,0.0815 0.29162,0.20075 0.37723,0.26521 0.0858,0.0645 0.25176,0.19714 0.36903,0.29473 0.11727,0.0978 0.35033,0.31425 0.51795,0.48139 0.16762,0.16713 0.3805,0.39234 0.47333,0.50057 0.0928,0.10825 0.24373,0.29638 0.33558,0.41824 0.0919,0.12186 0.21798,0.29882 0.28047,0.39363 0.0625,0.0946 0.16418,0.25701 0.22617,0.36083 0.0618,0.10366 0.18157,0.32885 0.2657,0.50024 0.0843,0.1714 0.1937,0.41496 0.24324,0.54125 0.0495,0.12629 0.1235,0.33443 0.16467,0.46251 0.041,0.1281 0.10431,0.35313 0.14072,0.50024 0.0364,0.14696 0.0845,0.36756 0.10661,0.48992 0.0223,0.12252 0.0572,0.35871 0.0776,0.52484 0.0331,0.27046 0.0371,0.37558 0.0371,0.99934 0,0.62375 -0.004,0.72888 -0.0371,0.99933 -0.0203,0.16615 -0.0553,0.40234 -0.0774,0.52484 -0.0223,0.12236 -0.0743,0.35904 -0.11563,0.526 -0.0413,0.1668 -0.11448,0.42169 -0.1627,0.56617 -0.0482,0.14433 -0.12941,0.36213 -0.18058,0.48384 -0.051,0.12154 -0.14072,0.31868 -0.19927,0.43791 -0.0586,0.11924 -0.15729,0.3054 -0.21929,0.41381 -0.062,0.10825 -0.16861,0.28161 -0.23667,0.38526 -0.0681,0.10349 -0.18895,0.27571 -0.26866,0.38248 -0.0797,0.10694 -0.22142,0.2862 -0.31508,0.39856 -0.0935,0.11218 -0.31407,0.34835 -0.49039,0.52484 -0.17615,0.17665 -0.41248,0.39871 -0.52534,0.4937 -0.11268,0.095 -0.28358,0.23208 -0.37953,0.3049 -0.0961,0.0728 -0.2621,0.19075 -0.36903,0.26225 -0.10694,0.0713 -0.2498,0.1632 -0.31753,0.20404 -0.0676,0.0408 -0.21961,0.12678 -0.33788,0.19108 -0.11809,0.0641 -0.299,0.15482 -0.40183,0.20124 -0.10284,0.0466 -0.27555,0.11973 -0.38378,0.1627 -0.10825,0.0428 -0.31213,0.1153 -0.45302,0.16073 -0.14089,0.0456 -0.3623,0.10875 -0.49204,0.14024 -0.12974,0.0316 -0.31328,0.0722 -0.40806,0.0902 -0.0946,0.0181 -0.27915,0.0476 -0.41003,0.0656 -0.13072,0.0181 -0.33738,0.042 -0.45924,0.0533 -0.1217,0.0112 -0.44284,0.0205 -0.71346,0.0205 -0.27062,0 -0.588,-0.009 -0.70526,-0.0199 -0.11727,-0.0108 -0.29803,-0.031 -0.40183,-0.0444 -0.10366,-0.0136 -0.29195,-0.0433 -0.41824,-0.0661 -0.12629,-0.0228 -0.34723,-0.0709 -0.49107,-0.10694 -0.14384,-0.0361 -0.3541,-0.0955 -0.46744,-0.13203 -0.11333,-0.0366 -0.3277,-0.11448 -0.47661,-0.17304 -0.14876,-0.0587 -0.38133,-0.16089 -0.51664,-0.22716 -0.13531,-0.0661 -0.34936,-0.1809 -0.47564,-0.25487 -0.12629,-0.074 -0.30703,-0.18632 -0.40184,-0.2498 -0.0946,-0.0633 -0.25684,-0.17828 -0.36033,-0.25536 -0.10349,-0.0773 -0.28423,-0.22126 -0.40183,-0.32016 -0.1176,-0.0987 -0.35443,-0.32047 -0.52632,-0.49236 -0.17189,-0.17205 -0.39018,-0.40511 -0.48531,-0.51779 -0.095,-0.11285 -0.23225,-0.28358 -0.30508,-0.37954 -0.0728,-0.0961 -0.19075,-0.26209 -0.26226,-0.36903 -0.0715,-0.10694 -0.17927,-0.27767 -0.23946,-0.37935 -0.06,-0.10153 -0.16778,-0.30163 -0.23946,-0.44464 -0.0715,-0.14285 -0.17139,-0.35788 -0.22174,-0.47762 -0.0505,-0.11989 -0.13171,-0.33673 -0.18058,-0.48204 -0.0489,-0.14532 -0.11481,-0.36396 -0.14663,-0.48564 -0.0318,-0.12186 -0.08,-0.33213 -0.10694,-0.46744 -0.0271,-0.13531 -0.0636,-0.35673 -0.0815,-0.49204 -0.0177,-0.13531 -0.0412,-0.34935 -0.052,-0.47564 -0.011,-0.12629 -0.0198,-0.43266 -0.02,-0.68066 0,-0.24815 0.009,-0.55437 0.0193,-0.68065 0.0108,-0.12629 0.0303,-0.31458 0.0436,-0.41824 0.0133,-0.10382 0.0433,-0.29572 0.0668,-0.42643 0.0235,-0.13089 0.072,-0.35591 0.10792,-0.50025 0.0359,-0.14433 0.10842,-0.39165 0.1609,-0.54962 0.0526,-0.15778 0.14056,-0.39346 0.19551,-0.52337 0.0549,-0.13006 0.16844,-0.36986 0.25225,-0.53304 0.0838,-0.16303 0.21715,-0.39986 0.2962,-0.526 0.079,-0.12612 0.2037,-0.31292 0.27702,-0.41511 0.0733,-0.10201 0.20009,-0.26931 0.28177,-0.37148 0.0817,-0.10218 0.2352,-0.28161 0.34116,-0.3987 0.10595,-0.11727 0.28194,-0.29915 0.39101,-0.40446 0.10906,-0.10514 0.28456,-0.26554 0.38971,-0.35641 0.10513,-0.091 0.30195,-0.24848 0.43726,-0.35018 0.13531,-0.10169 0.33097,-0.23995 0.43463,-0.3072 0.10382,-0.0672 0.2662,-0.16697 0.36083,-0.22125 0.0948,-0.0544 0.26817,-0.14696 0.38544,-0.20551 0.11727,-0.0585 0.29817,-0.14351 0.40183,-0.18845 0.10382,-0.0451 0.28391,-0.11645 0.40018,-0.1586 0.11645,-0.0422 0.3231,-0.10891 0.45924,-0.14827 0.1363,-0.0392 0.33458,-0.0909 0.44071,-0.11465 0.10612,-0.0236 0.29803,-0.0609 0.42644,-0.0825 0.12842,-0.0218 0.34378,-0.0517 0.47877,-0.0664 0.13482,-0.0148 0.36,-0.033 0.50024,-0.0405 0.14023,-0.008 0.40626,-0.0105 0.5911,-0.006 z"
       id="icon" /></g></svg>